STARTFONT 2.1
FONT -Monotype-Book Antiqua-Bold-R-Normal--50-360-100-100-P-276-iso8859-9
SIZE 36 100 100
FONTBOUNDINGBOX 60 60 -8 -13

STARTPROPERTIES 24
FOUNDRY "Monotype"
FAMILY_NAME "Book Antiqua"
WEIGHT_NAME "Bold"
SLANT "R"
SETWIDTH_NAME "Normal"
ADD_STYLE_NAME ""
PIXEL_SIZE 50
POINT_SIZE 360
RESOLUTION_X 100
RESOLUTION_Y 100
SPACING "P"
AVERAGE_WIDTH 276
CHARSET_REGISTRY "iso8859"
CHARSET_ENCODING "9"
FACE_NAME "Book Antiqua Bold ISO Latin5"
_DEC_DEVICE_FONTNAMES "PS=bookantiqua-b-lat5"
COPYRIGHT "Copyright (c) 1993 Monotype Typography Ltd."
CAP_HEIGHT 44
X_HEIGHT 30
WEIGHT 10
QUAD_WIDTH 31
DEFAULT_CHAR 160
FONT_DESCENT 15
FONT_ASCENT 49
ENDPROPERTIES

CHARS 191

STARTCHAR space
ENCODING 32
SWIDTH 250 0
DWIDTH 13 0
BBX 0 0 0 0
BITMAP
ENDCHAR

STARTCHAR exclam
ENCODING 33
SWIDTH 278 0
DWIDTH 14 0
BBX 11 35 2 -1
BITMAP
0780
1F80
7F80
7F80
7F80
3F80
3F00
3F00
3F00
3F00
3F00
3F00
3F00
1E00
1E00
1E00
1E00
1E00
1E00
1E00
1C00
0C00
0C00
0C00
0800
0000
0000
1E00
3F00
7F80
7F80
7F80
7F80
3F00
1E00
ENDCHAR

STARTCHAR quotedbl
ENCODING 34
SWIDTH 402 0
DWIDTH 20 0
BBX 21 17 0 18
BITMAP
040100
1F07C0
3F8FE0
3F8FE0
3F8FE0
3F8FE0
3F8FE0
3F8FC0
1F07C0
1F07C0
1F07C0
0E0380
0E0380
0E0380
0E0380
040100
040100
ENDCHAR

STARTCHAR numbersign
ENCODING 35
SWIDTH 606 0
DWIDTH 30 0
BBX 30 34 0 0
BITMAP
003C0780
003C0780
003C0780
003C0700
00380700
00780F00
00780F00
00780F00
00780F00
1FFFFFF8
1FFFFFF8
1FFFFFF8
1FFFFFF8
00F01E00
00F01E00
00F01E00
00F01E00
00E01C00
01E03C00
01E03C00
7FFFFFF0
7FFFFFF0
7FFFFFF0
7FFFFFF0
01C03800
03C07800
03C07800
03C07800
03C07800
03C07800
03807000
0780F000
0780F000
0780F000
ENDCHAR

STARTCHAR dollar
ENCODING 36
SWIDTH 500 0
DWIDTH 25 0
BBX 26 43 -1 -5
BITMAP
000C0000
000C0000
000C0000
000C0000
007FE000
01FFFC00
07FFFC00
0FCC3C00
1F0C1C00
1F0C1C00
1E0C1C00
3E0C0C00
3E0C0C00
3E0C0000
3F0C0000
3F0C0000
3FCC0000
3FFF0000
1FFFE000
1FFFF800
0FFFFC00
07FFFE00
00FFFF00
000FFF00
000CFF00
000C3F00
000C3F00
000C1F00
380C1F00
380C1F00
380C1F00
380C1E00
380C3E00
3C0C7C00
3F0CF800
3FFFF000
1FFFE000
03FF0000
000C0000
000C0000
000C0000
000C0000
000C0000
ENDCHAR

STARTCHAR percent
ENCODING 37
SWIDTH 889 0
DWIDTH 44 0
BBX 44 38 0 -2
BITMAP
000000038000
01F000070000
07FC00060000
0E3E000E0000
1E1E000C0000
1C1F001C0000
1C0F00180000
3C0F00380000
3C0F00380000
3C0F00700000
3C0F00700000
3C0F00E00000
3C0F00E00000
3C0F01C00000
3C0F01C00000
3C0F03807C00
3C0F0381FF00
3E0E0303CF80
1E0E07078780
1E1E06070780
0F3C0E0703C0
07F80C0F03C0
03E01C0F03C0
0000180F03C0
0000380F03C0
0000300F03C0
0000700F03C0
0000600F03C0
0000E00F03C0
0000C00F03C0
0001C00F03C0
0001800F8380
000380078380
000300078780
00070003C700
00060003FE00
000E0000F800
000E00000000
ENDCHAR

STARTCHAR ampersand
ENCODING 38
SWIDTH 833 0
DWIDTH 42 0
BBX 40 36 2 -1
BITMAP
0003E00000
000FF80000
001FF80000
0038FC0000
00307C0000
00703C0000
00F03C0000
01F03C0000
01F03C0000
01F0780000
01F0780000
01F8F00000
01F9E00000
00FBC00000
00FF000000
00FE00000C
00FE03FFFC
01FE07FFF8
07FF07FFF8
0FBF807C08
1F1FC03C00
3E0FE03C00
3E0FE03C00
7E07F03C00
7E03F83800
7E01FC7800
7F00FF7000
7F00FFE000
7F807FE000
3F803FF804
3FC01FFE0E
1FF00FFFFC
1FFC3FFFF8
0FFFF8FFF0
03FFE07FE0
00FF800FC0
ENDCHAR

STARTCHAR quoteright
ENCODING 39
SWIDTH 278 0
DWIDTH 14 0
BBX 14 14 0 22
BITMAP
0038
07F0
07F0
07E0
07C0
0FC0
0F80
0F80
0F00
1F00
1E00
3C00
3C00
7000
ENDCHAR

STARTCHAR parenleft
ENCODING 40
SWIDTH 333 0
DWIDTH 17 0
BBX 15 47 3 -11
BITMAP
0018
0038
0070
00F0
01E0
03E0
03C0
07C0
0780
0F80
0F80
1F80
1F00
1F00
3F00
3F00
3F00
3F00
3F00
7F00
7F00
7F00
7F00
7F00
7F00
7F00
7F00
7F00
3F00
3F00
3F00
3F00
3F00
1F00
1F00
1F80
0F80
0F80
0780
07C0
03C0
03E0
01E0
00F0
0070
0038
0018
ENDCHAR

STARTCHAR parenright
ENCODING 41
SWIDTH 333 0
DWIDTH 17 0
BBX 15 47 -1 -11
BITMAP
3000
3800
1C00
1E00
0F00
0F80
0780
07C0
03E0
03E0
03F0
03F0
01F0
01F8
01F8
01F8
01F8
01F8
01FC
01FC
01FC
01FC
01FC
01FC
01FC
01FC
01FC
01FC
01FC
01F8
01F8
01F8
01F8
01F8
01F0
01F0
03F0
03E0
03E0
07C0
0780
0780
0F00
0E00
1C00
3800
3000
ENDCHAR

STARTCHAR asterisk
ENCODING 42
SWIDTH 444 0
DWIDTH 22 0
BBX 21 18 1 16
BITMAP
003C00
183E00
183E00
3C3C00
3E3800
3F7800
0FF060
03EFE0
00FFE0
03FFE0
1FE0E0
7F7000
3E7800
3C7800
187C00
007E00
003800
002000
ENDCHAR

STARTCHAR plus
ENCODING 43
SWIDTH 606 0
DWIDTH 30 0
BBX 27 25 2 4
BITMAP
001F0000
001F0000
001F0000
001F0000
001F0000
001F0000
001F0000
001F0000
001F0000
001F0000
7FFFFFC0
7FFFFFC0
7FFFFFC0
7FFFFFC0
7FFFFFC0
001F0000
001F0000
001F0000
001F0000
001F0000
001F0000
001F0000
001F0000
001F0000
001F0000
ENDCHAR

STARTCHAR comma
ENCODING 44
SWIDTH 250 0
DWIDTH 13 0
BBX 15 16 -2 -9
BITMAP
0018
00F8
03F8
03F0
07F0
07E0
07E0
07C0
0F80
0F80
0F00
1F00
1E00
3C00
3800
2000
ENDCHAR

STARTCHAR minus
ENCODING 45
SWIDTH 606 0
DWIDTH 30 0
BBX 28 5 1 14
BITMAP
3FFFFFE0
3FFFFFE0
3FFFFFE0
3FFFFFE0
3FFFFFE0
ENDCHAR

STARTCHAR period
ENCODING 46
SWIDTH 250 0
DWIDTH 13 0
BBX 10 8 1 -1
BITMAP
1E00
3F00
7F80
7F80
7F80
7F80
3F00
1E00
ENDCHAR

STARTCHAR slash
ENCODING 47
SWIDTH 296 0
DWIDTH 15 0
BBX 28 45 -8 -10
BITMAP
00000FC0
00000F80
00000F80
00001F00
00001F00
00003E00
00003E00
00003E00
00007C00
00007C00
0000F800
0000F800
0000F800
0001F000
0001F000
0003E000
0003E000
0007E000
0007C000
0007C000
000F8000
000F8000
001F0000
001F0000
001F0000
003E0000
003E0000
007C0000
007C0000
00FC0000
00F80000
00F80000
01F00000
01F00000
03E00000
03E00000
03E00000
07C00000
07C00000
0F800000
0F800000
0F800000
1F000000
1F000000
3F000000
ENDCHAR

STARTCHAR zero
ENCODING 48
SWIDTH 500 0
DWIDTH 25 0
BBX 25 36 1 -1
BITMAP
003F0000
01FFC000
03FFE000
07C3F000
0F81F800
1F01F800
1F00FC00
3F00FC00
3E00FC00
3E00FE00
3E00FE00
3E007E00
7E007E00
7E007E00
7E007E00
7E007E00
7E007E00
7E007E00
7E007E00
7E007E00
7E007E00
7E007E00
7E007E00
7E007E00
7E007C00
7F007C00
3F007C00
3F007C00
3F00FC00
3F00F800
1F80F800
1F81F000
0FC3E000
07FFC000
01FF8000
007C0000
ENDCHAR

STARTCHAR one
ENCODING 49
SWIDTH 500 0
DWIDTH 25 0
BBX 24 35 -1 0
BITMAP
000080
000780
003F80
00FF80
07FF80
3FFF80
3F3F80
3C3F80
203F80
003F80
003F80
003F80
003F80
003F80
003F80
003F80
003F80
003F80
003F80
003F80
003F80
003F80
003F80
003F80
003F80
003F80
003F80
003F80
003F80
003F80
003F80
003F80
00FFC0
0FFFFE
0FFFFE
ENDCHAR

STARTCHAR two
ENCODING 50
SWIDTH 500 0
DWIDTH 25 0
BBX 26 35 0 0
BITMAP
007F0000
01FFC000
07FFF000
0FFFF800
1FFFFC00
1FFFFC00
1F03FC00
1C01FE00
1C01FE00
1800FE00
1800FE00
1800FE00
0000FE00
0000FC00
0000FC00
0000F800
0001F800
0001F000
0003E000
0003C000
00078000
000F0000
001E0000
003C0000
00780000
00F00000
01E00000
03C00000
07800000
0FFFFF00
1FFFFF00
3FFFFF00
7FFFFF00
7FFFFF00
7FFFFF00
ENDCHAR

STARTCHAR three
ENCODING 51
SWIDTH 500 0
DWIDTH 25 0
BBX 26 36 -1 -1
BITMAP
00FF8000
03FFE000
07FFF000
07FFF800
0FFFF800
0F87FC00
0E01FC00
0C00FC00
0C00FC00
1800FC00
0000F800
0000F800
0001F000
0001C000
00078000
007FE000
00FFFC00
00FFFE00
00FFFE00
0003FF00
0000FF00
00007F00
00007F00
00003F00
00003F00
00003F00
30003F00
30003E00
38003E00
38007C00
1C007800
1E00F000
1F83E000
1FFFC000
1FFF0000
03F80000
ENDCHAR

STARTCHAR four
ENCODING 52
SWIDTH 500 0
DWIDTH 25 0
BBX 26 35 -1 0
BITMAP
00003800
0003F800
0007F800
000FF800
000FF000
001FF000
003BF000
0033F000
0073F000
0063F000
00E3F000
01C3F000
0183F000
0383F000
0303F000
0703F000
0603F000
0E03F000
0C03F000
1C03F000
1803F000
3803F000
3FFFFF80
7FFFFF80
7FFFFF00
7FFFFF00
0003F000
0003F000
0003F000
0003F000
0003F000
0007F000
003FFC00
00FFFF00
00FFFF00
ENDCHAR

STARTCHAR five
ENCODING 53
SWIDTH 500 0
DWIDTH 25 0
BBX 26 35 -1 -1
BITMAP
07FFFE00
07FFFE00
07FFFE00
07FFFE00
07FFFE00
07FFFE00
07000000
07000000
07000000
07000000
06000000
06000000
063FC000
06FFF000
07FFF800
07FFFC00
07FFFE00
0783FE00
0601FF00
0000FF00
00007F00
00003F00
00003F00
00003F00
00003F00
00003E00
30003E00
38003E00
38007C00
1C007800
1E00F000
1F83E000
1FFFC000
1FFF0000
03F80000
ENDCHAR

STARTCHAR six
ENCODING 54
SWIDTH 500 0
DWIDTH 25 0
BBX 25 36 0 -1
BITMAP
0001F000
0007F800
001FF800
007E0000
00F80000
01F00000
03E00000
07E00000
07C00000
0FC00000
1F800000
1F800000
1F800000
3F000000
3F0FE000
3F3FF000
3F7FF800
3FFFFC00
7FC3FC00
7F81FE00
7F00FE00
7F00FE00
7F007E00
7F007E00
7F007E00
3F007E00
3F007E00
3F007C00
3F007C00
1F007C00
1F80F800
0FC0F800
07E1F000
03FFE000
01FF8000
003E0000
ENDCHAR

STARTCHAR seven
ENCODING 55
SWIDTH 500 0
DWIDTH 25 0
BBX 27 34 0 0
BITMAP
3FFFFF80
3FFFFF80
3FFFFF80
3FFFFF00
3FFFFF00
3FFFFE00
38000E00
38001C00
38001C00
30003800
30007800
30007000
0000F000
0000E000
0001E000
0001C000
0003C000
00038000
00078000
000F0000
000F0000
001E0000
001E0000
003C0000
007C0000
00780000
00F80000
00F00000
01F00000
03F00000
03E00000
07E00000
0FE00000
0FC00000
ENDCHAR

STARTCHAR eight
ENCODING 56
SWIDTH 500 0
DWIDTH 25 0
BBX 25 36 0 -1
BITMAP
003F0000
01FFE000
03FFF000
0781F800
0F007C00
1F007C00
1E003C00
3E003C00
3E003C00
3F003C00
3F003C00
3F807800
3FE07800
1FF8F000
1FFFC000
0FFFC000
07FFF000
03FFF800
01FFFC00
079FFE00
1F07FE00
1E01FF00
3E00FF00
3C007F00
7C003F00
7C003F00
7C003F00
7C003E00
7C003E00
3E003E00
3E007C00
1F00F800
1FC1F000
0FFFE000
03FF8000
007E0000
ENDCHAR

STARTCHAR nine
ENCODING 57
SWIDTH 500 0
DWIDTH 25 0
BBX 24 36 1 -1
BITMAP
007E00
01FF80
07FFE0
0F83F0
1F01F0
1F01F8
3E00FC
3E00FC
3E00FC
7E00FC
7E00FE
7E00FE
7E00FE
7E00FE
7F00FE
7F00FE
3F81FE
3FE7FE
3FFFFE
1FFEFC
0FFCFC
07F0FC
0000FC
0000FC
0001F8
0001F8
0001F0
0003F0
0003E0
0007C0
000FC0
001F80
003F00
01FC00
1FF000
0F8000
ENDCHAR

STARTCHAR colon
ENCODING 58
SWIDTH 250 0
DWIDTH 13 0
BBX 10 25 1 -1
BITMAP
1E00
3F00
7F80
7F80
7F80
7F80
3F00
1E00
0000
0000
0000
0000
0000
0000
0000
0000
0000
1E00
3F00
7F80
7F80
7F80
7F80
3F00
1E00
ENDCHAR

STARTCHAR semicolon
ENCODING 59
SWIDTH 250 0
DWIDTH 13 0
BBX 14 32 -2 -8
BITMAP
01E0
03F0
07F8
07F8
07F8
07F8
03F0
01E0
0000
0000
0000
0000
0000
0000
0000
0000
0000
0038
03F0
07F0
07E0
07E0
07C0
0FC0
0F80
0F80
1F00
1F00
1E00
3C00
3800
7000
ENDCHAR

STARTCHAR less
ENCODING 60
SWIDTH 606 0
DWIDTH 30 0
BBX 28 26 1 4
BITMAP
00000060
000001E0
00000FE0
00003FE0
0000FFE0
0003FF80
000FFE00
007FF000
01FFC000
07FF0000
1FFC0000
3FE00000
3F800000
3F800000
3FE00000
1FF80000
07FF0000
01FFC000
007FF000
001FFC00
0007FF80
0000FFE0
00003FE0
00000FE0
000003E0
000000E0
ENDCHAR

STARTCHAR equal
ENCODING 61
SWIDTH 606 0
DWIDTH 30 0
BBX 28 14 1 10
BITMAP
3FFFFFE0
3FFFFFE0
3FFFFFE0
3FFFFFE0
3FFFFFE0
00000000
00000000
00000000
00000000
3FFFFFE0
3FFFFFE0
3FFFFFE0
3FFFFFE0
3FFFFFE0
ENDCHAR

STARTCHAR greater
ENCODING 62
SWIDTH 606 0
DWIDTH 30 0
BBX 28 26 1 4
BITMAP
30000000
3C000000
3F000000
3FC00000
3FF00000
0FFE0000
03FF8000
00FFE000
003FF800
000FFF00
0001FFC0
00007FE0
00001FE0
00001FE0
00007FE0
0001FFC0
0007FF00
003FF800
00FFE000
03FF8000
0FFE0000
3FF80000
3FC00000
3F000000
3C000000
30000000
ENDCHAR

STARTCHAR question
ENCODING 63
SWIDTH 444 0
DWIDTH 22 0
BBX 21 36 0 -1
BITMAP
01FC00
07FF00
1FFFC0
1FFFE0
1FFFE0
3C1FF0
380FF0
3007F0
3007F0
2007F0
0007F0
0007E0
000FE0
000FC0
001F80
003F00
007E00
00F800
00F000
01E000
01C000
018000
018000
018000
01C000
000000
000000
000000
01E000
03F000
07F800
07F800
07F800
07F800
03F000
01E000
ENDCHAR

STARTCHAR at
ENCODING 64
SWIDTH 747 0
DWIDTH 37 0
BBX 39 37 -1 -2
BITMAP
0000FFE000
0007C03800
001E000600
0038000300
00E0000180
01C00000C0
0380000040
0300000020
06001C0020
0E007EF830
0C00F2F810
1C01E1F010
1803C1F010
1807C1F010
380F81E010
300F83E010
301F03E010
301F03E030
301F07C020
303F07C020
303E0FC060
303E0F8040
303E178080
383F2F8180
183FEF830C
183FCF8608
181F87F808
0C0E01E010
0C00000030
0600000020
0300000040
0180000080
00C0000100
0060000600
0038001C00
000F00F000
0001FF8000
ENDCHAR

STARTCHAR A
ENCODING 65
SWIDTH 778 0
DWIDTH 39 0
BBX 40 35 0 0
BITMAP
00003C0000
00007C0000
00007E0000
00007E0000
0000FF0000
0000FF0000
0001FF0000
0001FF8000
0001FF8000
0003BFC000
0003BFC000
00071FC000
00071FE000
00070FE000
000E0FF000
000E0FF000
001C07F800
001C07F800
003C03F800
003803FC00
003801FC00
007FFFFE00
007FFFFE00
00FFFFFF00
00E000FF00
00E0007F00
01C0007F80
01C0007F80
03C0003FC0
0380003FC0
0780003FC0
0780001FE0
1FC0003FF0
3FF801FFFC
3FF801FFFC
ENDCHAR

STARTCHAR B
ENCODING 66
SWIDTH 667 0
DWIDTH 33 0
BBX 32 34 0 0
BITMAP
3FFFFF00
3FFFFFE0
0FFFFFF0
03F80FF8
03F807F8
03F803FC
03F803FC
03F803FC
03F803FC
03F803F8
03F803F8
03F807F0
03F807E0
03F81F80
03FFFE00
03FFFE00
03FFFFE0
03F80FF0
03F807F8
03F803FC
03F801FC
03F801FE
03F801FE
03F801FE
03F801FE
03F801FE
03F801FC
03F801FC
03F803F8
03F803F0
03F80FF0
03F83FC0
07FFFF80
0FFFFC00
ENDCHAR

STARTCHAR C
ENCODING 67
SWIDTH 722 0
DWIDTH 36 0
BBX 36 36 1 -1
BITMAP
0000FFE000
0007FFFF00
003FFFFFC0
007F803FC0
01FE000FC0
03FC000380
07F0000180
0FF0000180
0FE0000180
1FC0000180
1FC0000180
3FC0000000
3F80000000
3F80000000
3F80000000
7F80000000
7F80000000
7F80000000
7F80000000
7F80000000
7F80000000
3F80000000
3FC0000000
3FC0000000
3FC0000000
1FE0000000
1FE0000000
0FF0000000
0FF8000000
07FC000000
03FE000040
01FF8001C0
00FFF81F80
003FFFFF80
000FFFFC00
0001FFE000
ENDCHAR

STARTCHAR D
ENCODING 68
SWIDTH 833 0
DWIDTH 42 0
BBX 41 34 0 0
BITMAP
3FFFFFF00000
3FFFFFFF0000
0FFFFFFFC000
03F800FFE000
03F8001FF000
03F8000FF800
03F80007FC00
03F80003FC00
03F80001FE00
03F80001FE00
03F80000FE00
03F80000FF00
03F80000FF00
03F80000FF00
03F80000FF00
03F80000FF00
03F80000FF00
03F80000FF00
03F80000FE00
03F80000FE00
03F80000FE00
03F80000FE00
03F80001FC00
03F80001FC00
03F80001F800
03F80003F800
03F80007F000
03F80007E000
03F8001FC000
03F8003F8000
03F800FF0000
07FFFFFC0000
1FFFFFE00000
1FFFFE000000
ENDCHAR

STARTCHAR E
ENCODING 69
SWIDTH 611 0
DWIDTH 31 0
BBX 30 34 0 0
BITMAP
3FFFFFF0
3FFFFFF0
07FFFFF0
03F80070
03F80070
03F80030
03F80030
03F80000
03F80000
03F80000
03F80000
03F80180
03F80180
03F80180
03F80380
03FFFF80
03FFFF80
03F80380
03F80180
03F80180
03F80180
03F80180
03F80000
03F80000
03F80000
03F80018
03F80018
03F80038
03F80030
03F80030
03F80030
07FFFFF0
1FFFFFF0
1FFFFFF0
ENDCHAR

STARTCHAR F
ENCODING 70
SWIDTH 556 0
DWIDTH 28 0
BBX 29 34 0 0
BITMAP
3FFFFFE0
3FFFFFE0
07FFFFE0
03F800E0
03F800E0
03F800E0
03F800E0
03F800E0
03F80000
03F80000
03F80000
03F80000
03F80300
03F80300
03F80300
03FFFF00
03FFFF00
03FFFF00
03F80700
03F80300
03F80300
03F80300
03F80000
03F80000
03F80000
03F80000
03F80000
03F80000
03F80000
03F80000
03F80000
07FC0000
3FFFC000
3FFFC000
ENDCHAR

STARTCHAR G
ENCODING 71
SWIDTH 833 0
DWIDTH 42 0
BBX 40 36 1 -1
BITMAP
00003FF000
0007FFFF80
001FFFFFF0
007FC00FF0
01FE0003E0
03FC0001E0
07F80000E0
0FF00000E0
0FE0000060
1FC0000060
1FC0000060
3FC0000000
3F80000000
3F80000000
3F80000000
7F80000000
7F80000000
7F80000000
7F80000000
7F80000000
7F80000000
3F8001FFFC
3F8001FFFC
3FC0000FF0
3FC00007F0
1FE00007F0
1FE00007F0
0FF00007F0
07F00007F0
07F80007F0
03FE0007F0
01FF0007F0
007FC01FF0
003FFFFFC0
0007FFFE00
00007FC000
ENDCHAR

STARTCHAR H
ENCODING 72
SWIDTH 833 0
DWIDTH 42 0
BBX 41 34 0 0
BITMAP
7FFF80FFFF00
7FFF80FFFF00
07FC001FF000
03F8000FE000
03F8000FE000
03F8000FE000
03F8000FE000
03F8000FE000
03F8000FE000
03F8000FE000
03F8000FE000
03F8000FE000
03F8000FE000
03F8000FE000
03F8000FE000
03FFFFFFE000
03FFFFFFE000
03FFFFFFE000
03F8000FE000
03F8000FE000
03F8000FE000
03F8000FE000
03F8000FE000
03F8000FE000
03F8000FE000
03F8000FE000
03F8000FE000
03F8000FE000
03F8000FE000
03F8000FE000
03F8000FE000
07FC001FF000
7FFF80FFFF00
7FFF80FFFF00
ENDCHAR

STARTCHAR I
ENCODING 73
SWIDTH 389 0
DWIDTH 19 0
BBX 19 34 0 0
BITMAP
3FFFC0
3FFFC0
07FC00
03F800
03F800
03F800
03F800
03F800
03F800
03F800
03F800
03F800
03F800
03F800
03F800
03F800
03F800
03F800
03F800
03F800
03F800
03F800
03F800
03F800
03F800
03F800
03F800
03F800
03F800
03F800
03F800
07FC00
3FFFC0
3FFFC0
ENDCHAR

STARTCHAR J
ENCODING 74
SWIDTH 389 0
DWIDTH 19 0
BBX 21 45 -2 -11
BITMAP
1FFFF0
1FFFF0
01FF00
00FE00
00FE00
00FE00
00FE00
00FE00
00FE00
00FE00
00FE00
00FE00
00FE00
00FE00
00FE00
00FE00
00FE00
00FE00
00FE00
00FE00
00FE00
00FE00
00FE00
00FE00
00FE00
00FE00
00FE00
00FE00
00FE00
00FE00
00FE00
00FE00
00FE00
00FE00
00FE00
00FE00
00FC00
00FC00
00F800
00F000
20F000
31E000
3FC000
3F0000
3C0000
ENDCHAR

STARTCHAR K
ENCODING 75
SWIDTH 778 0
DWIDTH 39 0
BBX 40 34 0 0
BITMAP
3FFF800FF8
3FFF800FF8
07FC001F80
03F8003F00
03F8003C00
03F8007800
03F800F000
03F801E000
03F803C000
03F8078000
03F80F0000
03F81E0000
03F83C0000
03F8F80000
03F9F80000
03FBFC0000
03FFFC0000
03FFFE0000
03F9FF0000
03F8FF8000
03F87FC000
03F87FE000
03F83FF000
03F81FF800
03F80FF800
03F807FC00
03F803FE00
03F801FF00
03F800FF80
03F800FFC0
03F8007FE0
07FC003FF0
3FFF801FFC
3FFF800FFC
ENDCHAR

STARTCHAR L
ENCODING 76
SWIDTH 611 0
DWIDTH 31 0
BBX 31 34 0 0
BITMAP
3FFFC000
3FFFC000
07FC0000
03F80000
03F80000
03F80000
03F80000
03F80000
03F80000
03F80000
03F80000
03F80000
03F80000
03F80000
03F80000
03F80000
03F80000
03F80000
03F80000
03F80000
03F80000
03F80000
03F80000
03F80000
03F80000
03F80018
03F80018
03F80038
03F80038
03F80030
03F800F0
07FFFFF0
0FFFFFF0
1FFFFFF0
ENDCHAR

STARTCHAR M
ENCODING 77
SWIDTH 1000 0
DWIDTH 50 0
BBX 50 34 0 0
BITMAP
3FFC000007FF00
3FFC00000FFF00
07FE00000FF800
03FE00001FF000
03FF00001FF000
03FF00003FF000
03FF80003FF000
03FF80003FF000
03BFC00077F000
03BFC00077F000
039FE000E7F000
039FE000E7F000
038FF001C7F000
038FF001C7F000
0387F80387F000
0387F80387F000
0383FC0707F000
0383FC0707F000
0381FE0E07F000
0381FE0E07F000
0380FE1C07F000
0380FF1C07F000
03807F3807F000
03807FB807F000
03803FF007F000
03803FF007F000
03801FE007F000
03801FE007F000
03800FC007F000
03800FC007F000
03800FC007F000
07C007800FF800
3FF807807FFF00
3FF803007FFF00
ENDCHAR

STARTCHAR N
ENCODING 78
SWIDTH 833 0
DWIDTH 42 0
BBX 42 35 0 -1
BITMAP
7FF0000FFF00
7FF8000FFF00
07FC0000F000
03FE0000F000
03FF0000F000
03FF00007000
03FF80007000
03FFC0007000
03BFE0007000
03BFF0007000
039FF8007000
038FF8007000
0387FC007000
0383FE007000
0383FF007000
0381FF807000
0380FF807000
03807FC07000
03803FE07000
03801FF07000
03801FF87000
03800FFC7000
038007FE7000
038003FF7000
038001FF7000
038000FFF000
0380007FF000
0380007FF000
0380003FF000
0380001FF000
0380000FF000
07C00007F000
7FF80003F000
7FF80001F000
000000007000
ENDCHAR

STARTCHAR O
ENCODING 79
SWIDTH 833 0
DWIDTH 42 0
BBX 40 36 1 -1
BITMAP
0000FF8000
000FFFF800
003FFFFE00
00FF00FF80
01FC003FC0
03F0001FE0
07F0000FF0
0FE00007F0
0FC00007F8
1FC00003F8
1FC00003FC
3F800003FC
3F800001FC
3F800001FE
3F800001FE
7F800001FE
7F800001FE
7F800001FE
7F800001FE
7F800001FE
7F800001FE
7F800001FC
3F800001FC
3F800001FC
3FC00001FC
3FC00003F8
1FC00003F8
1FE00003F0
0FE00007E0
07F0000FE0
07F8000FC0
03FC003F80
00FF00FE00
007FFFFC00
000FFFE000
0001FE0000
ENDCHAR

STARTCHAR P
ENCODING 80
SWIDTH 611 0
DWIDTH 31 0
BBX 32 34 0 0
BITMAP
3FFFFF00
3FFFFFE0
0FFFFFF0
03F80FF8
03F807FC
03F803FC
03F803FC
03F801FC
03F801FC
03F801FC
03F801FC
03F801F8
03F803F8
03F803F0
03F807F0
03F81FC0
03F9FF80
03F9FE00
03F80000
03F80000
03F80000
03F80000
03F80000
03F80000
03F80000
03F80000
03F80000
03F80000
03F80000
03F80000
03F80000
07FC0000
3FFFC000
3FFFC000
ENDCHAR

STARTCHAR Q
ENCODING 81
SWIDTH 833 0
DWIDTH 42 0
BBX 42 44 1 -9
BITMAP
0000FF800000
000FFFF80000
003FFFFE0000
00FF00FF8000
01FC003FC000
03F0001FE000
07F0000FF000
0FE00007F000
0FC00007F800
1FC00003F800
1FC00003FC00
3F800003FC00
3F800001FC00
3F800001FE00
3F800001FE00
7F800001FE00
7F800001FE00
7F800001FE00
7F800001FE00
7F800001FE00
7F800001FE00
7F800001FC00
3F800001FC00
3F800001FC00
3FC00001FC00
3FC00003F800
1FC00003F800
1FE00003F000
0FF00007E000
07F0000FE000
07F8001FC000
03FE003F8000
00FF80FE0000
007FFFFC0000
001FFFE00000
0001FC000000
00007E000000
0000FFC00000
0003FFF80000
0007FFFF0100
001E1FFFFF00
000801FFFE00
0000007FF800
00000007F000
ENDCHAR

STARTCHAR R
ENCODING 82
SWIDTH 722 0
DWIDTH 36 0
BBX 37 34 0 0
BITMAP
3FFFFF8000
3FFFFFE000
0FFFFFF000
03F80FF800
03F807FC00
03F803FC00
03F801FC00
03F801FC00
03F801FC00
03F801FC00
03F801FC00
03F801F800
03F803F000
03F803E000
03F807C000
03F81F0000
03F9FE0000
03F9FE0000
03F8FF0000
03F8FF8000
03F87F8000
03F83FC000
03F83FE000
03F81FE000
03F80FF000
03F80FF800
03F807F800
03F803FC00
03F803FE00
03F801FE00
03F801FF00
03FC00FF80
3FFF807FE0
3FFF807FE0
ENDCHAR

STARTCHAR S
ENCODING 83
SWIDTH 611 0
DWIDTH 31 0
BBX 29 36 1 -1
BITMAP
000FF000
00FFFE00
03FFFF80
07F01F80
0FC00780
1F800380
1F000380
1F000380
3F000300
3F000300
3F000000
3F800000
3FC00000
3FF00000
1FFF8000
1FFFFC00
0FFFFF00
0FFFFF80
03FFFFC0
00FFFFC0
0007FFE0
00007FE0
00001FE0
00000FE0
000007E0
380007E0
380007E0
380007E0
380007C0
38000FC0
3C000F80
3E001F00
3F807E00
3FFFFC00
07FFF000
00FF0000
ENDCHAR

STARTCHAR T
ENCODING 84
SWIDTH 667 0
DWIDTH 33 0
BBX 35 34 -1 0
BITMAP
3FFFFFFFC0
3FFFFFFF80
3FFFFFFF80
3803F80380
3003F80180
3003F80180
3003F80180
3003F80180
0003F80000
0003F80000
0003F80000
0003F80000
0003F80000
0003F80000
0003F80000
0003F80000
0003F80000
0003F80000
0003F80000
0003F80000
0003F80000
0003F80000
0003F80000
0003F80000
0003F80000
0003F80000
0003F80000
0003F80000
0003F80000
0003F80000
0003F80000
0007FC0000
007FFFC000
007FFFC000
ENDCHAR

STARTCHAR U
ENCODING 85
SWIDTH 778 0
DWIDTH 39 0
BBX 40 35 0 -1
BITMAP
3FFF801FFC
3FFF801FFC
07FC0003E0
03F80001C0
03F80001C0
03F80001C0
03F80001C0
03F80001C0
03F80001C0
03F80001C0
03F80001C0
03F80001C0
03F80001C0
03F80001C0
03F80001C0
03F80001C0
03F80001C0
03F80001C0
03F80001C0
03F80001C0
03F80001C0
03F80001C0
03F80001C0
03F80001C0
03F80001C0
03F80001C0
03FC0003C0
03FC000380
01FE000780
01FF000F00
00FFC07F00
007FFFFE00
003FFFFC00
000FFFF000
0001FF8000
ENDCHAR

STARTCHAR V
ENCODING 86
SWIDTH 778 0
DWIDTH 39 0
BBX 40 35 -1 -1
BITMAP
7FFF801FFE
7FFF801FFE
0FFC0003F0
07F80001E0
03FC0001C0
03FC0003C0
01FC000380
01FE000380
00FE000780
00FF000700
00FF000700
007F000F00
007F800E00
003F801E00
003FC01C00
003FC01C00
001FE03800
001FE03800
000FE07800
000FF07000
0007F07000
0007F8E000
0007F8E000
0003F9E000
0003FDC000
0001FDC000
0001FF8000
0001FF8000
0000FF0000
0000FF0000
00007F0000
00007E0000
00003E0000
00003E0000
00003C0000
ENDCHAR

STARTCHAR W
ENCODING 87
SWIDTH 1000 0
DWIDTH 50 0
BBX 54 34 -2 0
BITMAP
7FFF000C003FF8
7FFF001E003FF8
0FF8001E0007E0
07F0003F0003C0
07F0003F000380
07F8003F000380
07F8007F800780
03F8007F800700
03F800FFC00700
03F800FFC00700
03FC01DFE00E00
01FC01DFE00E00
01FC038FE00E00
01FC038FF00E00
01FE070FF01C00
01FE0707F81C00
00FE0E07F81C00
00FE0E03F83800
00FE1C03FC3800
00FF1C03FC3800
007F3801FE3800
007F3801FE7000
007F7000FE7000
007F7000FF7000
007FE0007F7000
003FE0007FE000
003FC0007FE000
003FC0003FE000
003FC0003FC000
001F80001FC000
001F80001FC000
001F00001FC000
001F00000F8000
001E00000F8000
ENDCHAR

STARTCHAR X
ENCODING 88
SWIDTH 667 0
DWIDTH 33 0
BBX 35 35 -1 0
BITMAP
0030000000
07F8000FC0
3FFC001FC0
3FFC003E00
03FE003C00
01FF007800
01FF00F000
00FF80E000
007F81E000
007FC3C000
003FC78000
001FE70000
001FEF0000
000FFE0000
000FFC0000
0007F80000
0003FC0000
0003FC0000
0001FE0000
0001FE0000
0003FF0000
0007FF0000
000F7F8000
000E7FC000
001E3FC000
003C3FE000
00781FE000
00780FF000
00F00FF000
01E007F800
03E007FC00
03C003FC00
078003FE00
3F8001FFC0
3F0000FFC0
ENDCHAR

STARTCHAR Y
ENCODING 89
SWIDTH 667 0
DWIDTH 33 0
BBX 36 35 -2 0
BITMAP
0040000000
07F00003C0
3FF80003C0
3FFC000780
07FC000F80
03FE000F00
01FF001E00
01FF001E00
00FF803C00
007F803800
003FC07800
003FC0F000
001FE0E000
000FE1E000
000FF1C000
0007F3C000
0007FB8000
0003FF0000
0001FF0000
0001FE0000
0000FE0000
0000FE0000
0000FE0000
0000FE0000
0000FE0000
0000FE0000
0000FE0000
0000FE0000
0000FE0000
0000FE0000
0000FE0000
0000FE0000
0001FF0000
000FFFF000
000FFFF000
ENDCHAR

STARTCHAR Z
ENCODING 90
SWIDTH 667 0
DWIDTH 33 0
BBX 33 34 0 0
BITMAP
0FFFFFFF00
0FFFFFFF00
0FFFFFFE00
0E0003FC00
0E0007FC00
0C000FF800
0C000FF000
0C001FE000
00003FE000
00003FC000
00007F8000
0000FF0000
0000FF0000
0001FE0000
0003FC0000
0007F80000
0007F80000
000FF00000
001FE00000
001FE00000
003FC00000
007F800000
00FF800000
00FF000000
01FE000000
03FE000700
03FC000600
07F8000600
0FF0000600
1FF0000600
3FE0000E00
3FFFFFFE00
7FFFFFFE00
7FFFFFFE00
ENDCHAR

STARTCHAR bracketleft
ENCODING 91
SWIDTH 333 0
DWIDTH 17 0
BBX 15 47 2 -11
BITMAP
3FFC
3FFC
3FFC
3F80
3F00
3F00
3F00
3F00
3F00
3F00
3F00
3F00
3F00
3F00
3F00
3F00
3F00
3F00
3F00
3F00
3F00
3F00
3F00
3F00
3F00
3F00
3F00
3F00
3F00
3F00
3F00
3F00
3F00
3F00
3F00
3F00
3F00
3F00
3F00
3F00
3F00
3F00
3F00
3F80
3FFC
3FFC
3FFC
ENDCHAR

STARTCHAR backslash
ENCODING 92
SWIDTH 606 0
DWIDTH 30 0
BBX 29 45 2 -10
BITMAP
3E000000
3F000000
1F000000
1F800000
0F800000
0FC00000
07C00000
07C00000
03E00000
03E00000
03F00000
01F00000
01F80000
00F80000
00F80000
007C0000
007C0000
003E0000
003E0000
003F0000
001F0000
001F8000
000F8000
000F8000
0007C000
0007C000
0007E000
0003E000
0003F000
0001F000
0001F800
0000F800
0000F800
00007C00
00007C00
00007E00
00003E00
00003F00
00001F00
00001F80
00000F80
00000F80
000007C0
000007C0
000007E0
ENDCHAR

STARTCHAR bracketright
ENCODING 93
SWIDTH 333 0
DWIDTH 17 0
BBX 15 47 0 -11
BITMAP
7FF8
7FF8
7FF8
03F8
01F8
01F8
01F8
01F8
01F8
01F8
01F8
01F8
01F8
01F8
01F8
01F8
01F8
01F8
01F8
01F8
01F8
01F8
01F8
01F8
01F8
01F8
01F8
01F8
01F8
01F8
01F8
01F8
01F8
01F8
01F8
01F8
01F8
01F8
01F8
01F8
01F8
01F8
01F8
01F8
7FF8
7FF8
7FF8
ENDCHAR

STARTCHAR asciicircum
ENCODING 94
SWIDTH 606 0
DWIDTH 30 0
BBX 28 20 1 14
BITMAP
001F8000
001F8000
003FC000
003FC000
007FE000
007FE000
00FFF000
00F9F000
01F9F800
01F0F800
03F0FC00
03E07C00
07E07E00
07C03E00
0FC03F00
0F801F00
1F800F80
1F000F80
3F0007C0
3E0007C0
ENDCHAR

STARTCHAR underscore
ENCODING 95
SWIDTH 500 0
DWIDTH 25 0
BBX 29 3 -2 -6
BITMAP
3FFFFFE0
3FFFFFE0
3FFFFFE0
ENDCHAR

STARTCHAR quoteleft
ENCODING 96
SWIDTH 278 0
DWIDTH 14 0
BBX 14 14 0 22
BITMAP
0030
00F0
00F0
01E0
03E0
03E0
07C0
07C0
0FC0
0F80
1F80
1F80
3F80
7800
ENDCHAR

STARTCHAR a
ENCODING 97
SWIDTH 500 0
DWIDTH 25 0
BBX 25 25 1 -1
BITMAP
007E0000
01FFC000
07FFE000
1FFFE000
1C0FF000
1C07F000
1807F000
0003F000
0003F000
0003F000
001FF000
01FFF000
0FE3F000
1F83F000
3F03F000
7E03F000
7E03F000
7E03F000
7F07F000
7F0FF000
7FFFF000
3FFBF800
3FE3FE00
1FC3FE00
07800000
ENDCHAR

STARTCHAR b
ENCODING 98
SWIDTH 611 0
DWIDTH 31 0
BBX 30 38 0 -1
BITMAP
00200000
01E00000
7FE00000
7FE00000
0FE00000
07E00000
07E00000
07E00000
07E00000
07E00000
07E00000
07E00000
07E00000
07E0FE00
07E3FF80
07E7FFC0
07EFFFC0
07FC3FE0
07F81FF0
07E00FF0
07E007F0
07E007F0
07E003F0
07E003F0
07E003F0
07E003F0
07E003F0
07E003E0
07E003E0
07E003C0
07E007C0
07E00780
07E00F00
07F01E00
07FC3C00
07FFF800
07FFF000
043FC000
ENDCHAR

STARTCHAR c
ENCODING 99
SWIDTH 444 0
DWIDTH 22 0
BBX 22 25 0 -1
BITMAP
000FE0
003FF8
00FFF8
01FFF0
07C0F0
078070
0F8030
1F0030
1F0030
3F0000
3F0000
3F0000
3F0000
3F0000
3F8000
3F8000
3F8000
3FC000
1FE000
1FF000
0FF808
07FFF0
03FFF0
01FFE0
003F00
ENDCHAR

STARTCHAR d
ENCODING 100
SWIDTH 611 0
DWIDTH 31 0
BBX 30 37 1 -1
BITMAP
00000380
0000FF80
0001FF80
00003F80
00001F80
00001F80
00001F80
00001F80
00001F80
00001F80
00001F80
00001F80
001FDF80
007FFF80
00FFFF80
03E0FF80
07C07F80
0F803F80
1F801F80
1F001F80
1F001F80
3F001F80
3F001F80
3F001F80
3F001F80
3F001F80
3F801F80
3F801F80
3F801F80
3FC01F80
1FC03F80
1FF0FF80
0FFFFF80
0FFF9F80
07FF1FF8
01FE1FF8
00780000
ENDCHAR

STARTCHAR e
ENCODING 101
SWIDTH 500 0
DWIDTH 25 0
BBX 24 25 1 -1
BITMAP
003F00
00FFC0
03FFF0
0783F8
0F81F8
1F01FC
3F00FC
3F00FC
3E00FC
7E00FC
7FFFFC
7FFFFC
7FFFE0
7F0000
7F0000
7F0000
7F0000
3F8000
3FC000
3FE000
1FF01C
0FFFF8
07FFF8
01FFE0
003F00
ENDCHAR

STARTCHAR f
ENCODING 102
SWIDTH 389 0
DWIDTH 19 0
BBX 22 37 -1 -1
BITMAP
0000F0
0003F8
000FF8
001FF8
003FF0
007870
00F010
01F000
01F000
03F000
03F000
03F000
03F000
03F000
03F000
07FFE0
1FFFE0
3FFFC0
03F000
03F000
03F000
03F000
03F000
03F000
03F000
03F000
03F000
03F000
03F000
03F000
03F000
03F000
03F000
03F000
0FFE00
3FFF80
3FFF80
ENDCHAR

STARTCHAR g
ENCODING 103
SWIDTH 556 0
DWIDTH 28 0
BBX 30 37 0 -13
BITMAP
00FFC000
03FFF000
0FE3FFF0
0FC0FFF0
1F80FFE0
3F807E00
3F007E00
3F007E00
3F007E00
3F807E00
3F807C00
1F80FC00
1FC0F800
0FE3F000
07FFE000
01FF8000
01800000
07000000
0F000000
1F800000
1FFFFF00
1FFFFFC0
1FFFFFC0
0FFFFFE0
03FFFFE0
07000FE0
1E0007E0
3C0007E0
7C0007C0
7C0007C0
7C0007C0
7C000780
3E000F00
3F001E00
1FC0FC00
0FFFF000
01FFC000
ENDCHAR

STARTCHAR h
ENCODING 104
SWIDTH 611 0
DWIDTH 31 0
BBX 31 37 0 0
BITMAP
00200000
01E00000
7FE00000
7FE00000
0FE00000
07E00000
07E00000
07E00000
07E00000
07E00000
07E00000
07E00000
07E00000
07E1FE00
07E3FF00
07E7FF80
07EFFFC0
07FC3FC0
07F01FC0
07F01FC0
07E00FC0
07E00FC0
07E00FC0
07E00FC0
07E00FC0
07E00FC0
07E00FC0
07E00FC0
07E00FC0
07E00FC0
07E00FC0
07E00FC0
07E00FC0
07E00FC0
7FFE0FFC
7FFE0FFC
7FFE0FFC
ENDCHAR

STARTCHAR i
ENCODING 105
SWIDTH 333 0
DWIDTH 17 0
BBX 16 36 0 0
BITMAP
01C0
07E0
07F0
0FF0
0FF0
07F0
07E0
03C0
0000
0000
0000
0000
0020
01E0
7FE0
7FE0
0FE0
07E0
07E0
07E0
07E0
07E0
07E0
07E0
07E0
07E0
07E0
07E0
07E0
07E0
07E0
07E0
07E0
0FF0
7FFE
7FFE
ENDCHAR

STARTCHAR j
ENCODING 106
SWIDTH 333 0
DWIDTH 17 0
BBX 15 49 -1 -13
BITMAP
0070
01F8
01FC
03FC
03FC
01F8
01F8
00F0
0000
0000
0000
0000
0018
01F8
1FF8
1FF8
03F8
01F8
01F8
01F8
01F8
01F8
01F8
01F8
01F8
01F8
01F8
01F8
01F8
01F8
01F8
01F8
01F8
01F8
01F8
01F8
01F8
01F8
01F8
01F8
01F0
01F0
03F0
03E0
03E0
07C0
0780
3F00
3C00
ENDCHAR

STARTCHAR k
ENCODING 107
SWIDTH 611 0
DWIDTH 31 0
BBX 31 36 0 0
BITMAP
00600000
07E00000
7FE00000
7FE00000
07E00000
07E00000
07E00000
07E00000
07E00000
07E00000
07E00000
07E00000
07E00000
07E007F0
07E00FF0
07E01F80
07E03E00
07E03C00
07E07800
07E0F000
07E3E000
07E78000
07EFC000
07FFE000
07FFF000
07EFF800
07E7FC00
07E3FC00
07E1FE00
07E0FF00
07E07F80
07E03FC0
07E01FE0
0FF01FF0
7FFE0FFC
7FFE07FC
ENDCHAR

STARTCHAR l
ENCODING 108
SWIDTH 333 0
DWIDTH 17 0
BBX 17 36 0 0
BITMAP
006000
07E000
7FE000
7FE000
07E000
07E000
07E000
07E000
07E000
07E000
07E000
07E000
07E000
07E000
07E000
07E000
07E000
07E000
07E000
07E000
07E000
07E000
07E000
07E000
07E000
07E000
07E000
07E000
07E000
07E000
07E000
07E000
07E000
0FF000
7FFE00
7FFE00
ENDCHAR

STARTCHAR m
ENCODING 109
SWIDTH 889 0
DWIDTH 44 0
BBX 45 24 0 0
BITMAP
0061FC03F000
07E3FE0FFC00
7FE7FF1FFE00
7FEFFFBFFE00
07F87FF0FF00
07F03FC07F00
07E01F807F00
07E01F803F00
07E01F803F00
07E01F803F00
07E01F803F00
07E01F803F00
07E01F803F00
07E01F803F00
07E01F803F00
07E01F803F00
07E01F803F00
07E01F803F00
07E01F803F00
07E01F803F00
07E01F803F00
0FF03FC07F80
7FFCFFF87FE0
7FFCFFF87FE0
ENDCHAR

STARTCHAR n
ENCODING 110
SWIDTH 611 0
DWIDTH 31 0
BBX 31 24 0 0
BITMAP
0061FE00
07E3FF00
7FE7FF80
7FEFFFC0
07FC7FC0
07F01FC0
07E01FC0
07E00FC0
07E00FC0
07E00FC0
07E00FC0
07E00FC0
07E00FC0
07E00FC0
07E00FC0
07E00FC0
07E00FC0
07E00FC0
07E00FC0
07E00FC0
07E00FC0
0FF00FE0
7FFE1FFC
7FFE1FFC
ENDCHAR

STARTCHAR o
ENCODING 111
SWIDTH 556 0
DWIDTH 28 0
BBX 26 25 1 -1
BITMAP
00FFC000
03FFF800
07E1FC00
0FC0FE00
1F807E00
1F807F00
3F007F00
3F003F80
3F003F80
7F003F80
7F003F80
7F003F80
7F003F80
7F003F80
7F003F80
7F003F80
3F003F00
3F803F00
3F803F00
1F803E00
1FC07E00
0FC0FC00
07F1F800
03FFE000
00FF8000
ENDCHAR

STARTCHAR p
ENCODING 112
SWIDTH 611 0
DWIDTH 31 0
BBX 30 37 0 -13
BITMAP
0060FE00
0FE3FF80
7FE7FFC0
7FEFFFE0
07FC3FE0
07F00FF0
07E00FF0
07E007F0
07E007F0
07E003F0
07E003F0
07E003F0
07E003F0
07E003F0
07E003E0
07E003E0
07E003E0
07E007C0
07E00780
07E00F00
07F00F00
07FC3C00
07FFF800
07FFF000
07EFC000
07E00000
07E00000
07E00000
07E00000
07E00000
07E00000
07E00000
07E00000
07E00000
0FF00000
7FFE0000
7FFE0000
ENDCHAR

STARTCHAR q
ENCODING 113
SWIDTH 611 0
DWIDTH 31 0
BBX 30 37 0 -13
BITMAP
000FE0C0
003FF9C0
00FFFFC0
01E0FF80
07C03F80
0F801F80
0F801F80
1F801F80
1F001F80
3F001F80
3F001F80
3F001F80
3F001F80
3F001F80
3F001F80
3F801F80
3F801F80
3FC01F80
1FC03F80
1FF0FF80
0FFFFF80
0FFF9F80
07FF1F80
03FE1F80
007C1F80
00001F80
00001F80
00001F80
00001F80
00001F80
00001F80
00001F80
00001F80
00001F80
00003FC0
0001FFF8
0001FFF8
ENDCHAR

STARTCHAR r
ENCODING 114
SWIDTH 389 0
DWIDTH 19 0
BBX 21 24 -1 0
BITMAP
0020F0
01E1F0
3FE3F0
3FE7F0
07EFF0
07FFF0
07F830
07F000
07F000
07F000
07E000
07E000
07E000
07E000
07E000
07E000
07E000
07E000
07E000
07E000
07F000
0FF000
3FFF00
3FFF00
ENDCHAR

STARTCHAR s
ENCODING 115
SWIDTH 444 0
DWIDTH 22 0
BBX 22 25 0 -1
BITMAP
01FF80
07FFE0
0FC3C0
1F01C0
1E00C0
3E00C0
3E00C0
3F0000
3FC000
3FFC00
3FFF80
1FFFC0
0FFFE0
07FFF0
00FFF0
000FF0
3003F0
3001F0
3001F0
3801F0
3801E0
3C03C0
3F0FC0
3FFF00
07FC00
ENDCHAR

STARTCHAR t
ENCODING 116
SWIDTH 333 0
DWIDTH 17 0
BBX 20 32 -1 -1
BITMAP
003000
01F000
07F000
07F000
07E000
07E000
07E000
07E000
07E000
07E000
0FFFC0
3FFFC0
7FFFC0
07E000
07E000
07E000
07E000
07E000
07E000
07E000
07E000
07E000
07E000
07E000
07E000
07E000
07F000
07F000
07FF80
03FF00
03FE00
00FC00
ENDCHAR

STARTCHAR u
ENCODING 117
SWIDTH 611 0
DWIDTH 31 0
BBX 31 25 0 -1
BITMAP
003000E0
03E007C0
7FE0FFC0
7FE0FFC0
07E00FC0
07E00FC0
07E00FC0
07E00FC0
07E00FC0
07E00FC0
07E00FC0
07E00FC0
07E00FC0
07E00FC0
07E00FC0
07E00FC0
07E00FC0
07E01FC0
07F01FC0
07F87FC0
07FFEFC0
03FFCFE0
03FF8FFC
01FF0FFC
007E0000
ENDCHAR

STARTCHAR v
ENCODING 118
SWIDTH 556 0
DWIDTH 28 0
BBX 29 23 -1 0
BITMAP
7FFC3FF0
7FFC3FF0
1FE00780
0FE00780
0FE00700
07F00700
07F00E00
03F00E00
03F81C00
01F81C00
01FC3C00
01FC3800
00FC3800
00FE7000
007E7000
007FE000
007FE000
003FE000
003FC000
001FC000
001F8000
001F8000
000F0000
ENDCHAR

STARTCHAR w
ENCODING 119
SWIDTH 833 0
DWIDTH 42 0
BBX 43 24 -1 0
BITMAP
000003000000
7FFE0780FFC0
7FFE0780FFC0
0FF007C01E00
07F00FC01E00
07F00FE01C00
07F01FE01C00
03F01FE03800
03F83FF03800
03F83BF03800
01F873F87000
01F873F87000
01FCE1FC7000
01FCE1FCE000
00FCC0FEE000
00FDC0FEE000
00FFC07FC000
007F807FC000
007F803FC000
007F003F8000
007F003F8000
003E001F8000
003E001F0000
003E000F0000
ENDCHAR

STARTCHAR x
ENCODING 120
SWIDTH 500 0
DWIDTH 25 0
BBX 27 24 -1 0
BITMAP
01000000
07C00F80
0FE01F80
3FE01E00
3FF03C00
0FF87800
07F8F000
03FCE000
01FFC000
00FF8000
007F8000
007F8000
003FC000
001FC000
003FE000
007FF000
0077F000
00E7F800
01C3FC00
03C1FE00
0781FF00
0F00FF80
3F007F80
3E003C00
ENDCHAR

STARTCHAR y
ENCODING 121
SWIDTH 556 0
DWIDTH 28 0
BBX 30 36 -1 -13
BITMAP
7FFE1FF0
7FFE1FF0
0FF003C0
07F00380
07F00380
03F00700
03F80700
03F80F00
01F80E00
01FC0E00
01FC1C00
00FE1C00
00FE3800
007E3800
007F7800
007F7000
003FF000
003FE000
001FE000
001FC000
001FC000
000F8000
000F8000
00078000
00070000
00070000
000E0000
000E0000
001C0000
001C0000
10380000
18780000
1FF00000
1FE00000
1FC00000
1F800000
ENDCHAR

STARTCHAR z
ENCODING 122
SWIDTH 500 0
DWIDTH 25 0
BBX 26 23 -1 0
BITMAP
0FFFFF00
0FFFFF00
0FFFFF00
0E01FE00
0C01FC00
0C03FC00
0C07F800
0007F000
000FE000
001FE000
003FC000
003F8000
007F0000
00FF0000
00FE0000
01FC0180
03F80180
07F80380
0FF00300
0FE00300
1FE00F00
3FFFFF00
3FFFFF00
ENDCHAR

STARTCHAR braceleft
ENCODING 123
SWIDTH 310 0
DWIDTH 16 0
BBX 17 47 0 -11
BITMAP
000300
003F00
007800
00F000
01E000
03E000
03E000
07E000
07E000
07E000
07E000
07F000
03F000
03F000
03F000
03F000
03F000
03E000
03E000
03C000
078000
0F0000
3E0000
600000
3C0000
0F0000
078000
03C000
03E000
03E000
03F000
03F000
03F000
03F000
03F000
07E000
07E000
07E000
07E000
07E000
07E000
03E000
03E000
01F000
00F800
003E00
000600
ENDCHAR

STARTCHAR bar
ENCODING 124
SWIDTH 606 0
DWIDTH 30 0
BBX 7 45 12 -9
BITMAP
7C
7C
7C
7C
7C
7C
7C
7C
7C
7C
7C
7C
7C
7C
7C
7C
7C
7C
7C
7C
7C
7C
7C
7C
7C
7C
7C
7C
7C
7C
7C
7C
7C
7C
7C
7C
7C
7C
7C
7C
7C
7C
7C
7C
7C
ENDCHAR

STARTCHAR braceright
ENCODING 125
SWIDTH 310 0
DWIDTH 16 0
BBX 17 47 -1 -11
BITMAP
600000
7E0000
0F8000
07C000
03E000
03E000
03F000
03F000
03F000
03F000
03F000
03F000
03E000
07E000
07E000
07E000
07E000
03E000
03E000
01E000
00F000
007800
001E00
000700
001E00
007800
00F000
01E000
03E000
03E000
07E000
07E000
07E000
07E000
07F000
07F000
03F000
03F000
03F000
03F000
03F000
03E000
03C000
07C000
0F0000
7E0000
600000
ENDCHAR

STARTCHAR asciitilde
ENCODING 126
SWIDTH 606 0
DWIDTH 30 0
BBX 30 9 0 12
BITMAP
03E00010
0FFC0010
1FFF8030
1FFFE070
3FFFFFF0
381FFFE0
3003FFE0
3000FFC0
20001F00
ENDCHAR

STARTCHAR space
ENCODING 160
SWIDTH 250 0
DWIDTH 16 0
BBX 0 0 0 0
BITMAP
ENDCHAR

STARTCHAR exclamdown
ENCODING 161
SWIDTH 278 0
DWIDTH 14 0
BBX 10 35 2 -11
BITMAP
1E00
3F00
7F80
7F80
7F80
7F80
3F00
1E00
0000
0000
0400
0C00
0C00
0E00
0E00
1E00
1E00
1E00
1E00
1E00
1E00
1F00
3F00
3F00
3F00
3F00
3F00
3F00
3F00
7F80
7F80
7F80
7F80
7C00
7000
ENDCHAR

STARTCHAR cent
ENCODING 162
SWIDTH 500 0
DWIDTH 25 0
BBX 21 32 2 1
BITMAP
001800
001800
001800
001800
001FC0
007FE0
01FFE0
07FFE0
0F99E0
1F18E0
3F18E0
3E18E0
3E18C0
7E1800
7E1800
7E1800
7E1800
7F1800
7F1800
7F1800
3F9800
3F9800
3FF800
1FF820
0FFFE0
07FFC0
01FF80
001800
001800
001800
001800
001800
ENDCHAR

STARTCHAR sterling
ENCODING 163
SWIDTH 500 0
DWIDTH 25 0
BBX 27 35 -1 -1
BITMAP
00007F80
0001FF80
0007FF80
000F8780
003E0380
007C0380
00FC0180
01FC0180
01F80000
01F80000
03F80000
03F80000
03F80000
03F80000
03F80000
3FFFF800
3FFFF800
3FFFF800
03F00000
03F00000
03F00000
03F00000
03E00000
03E00000
03C00000
03C00180
03800180
07800180
07000180
0FFFFF80
1FFFFF80
3FFFFF80
383FFF80
3003FF80
30003F00
ENDCHAR

STARTCHAR currency
ENCODING 164
SWIDTH 606 0
DWIDTH 30 0
BBX 29 25 1 5
BITMAP
0C1FC180
1EFFFBC0
3FFFFFE0
3FFFFFE0
1FFFFFC0
0FF07F80
1FC01FC0
1F800FC0
3F0007C0
3F0007E0
3E0003E0
3E0003E0
3E0003E0
3E0003E0
3F0003E0
3F0007E0
3F0007C0
1F800FC0
1FC01FC0
0FF07F80
1FFFFFC0
3FFFFFE0
3FFFFFE0
1EFFFBC0
0C3FC180
ENDCHAR

STARTCHAR yen
ENCODING 165
SWIDTH 500 0
DWIDTH 25 0
BBX 33 35 -5 -1
BITMAP
07E0001E00
3FF0001E00
3FF0003C00
0FF8003800
07FC007800
03FC007000
01FE00F000
00FE00E000
00FF01C000
007F01C000
007F838000
003F838000
003FC70000
001FC70000
000FCE0000
000FFC0000
07FFFFFC00
07FFFFFC00
07FFFFFC00
0003F80000
0003F80000
0001F80000
0001F80000
0001F80000
07FFFFFC00
07FFFFFC00
07FFFFFC00
0001F80000
0001F80000
0001F80000
0003F80000
0003F80000
000FFF8000
001FFF8000
001FFF8000
ENDCHAR

STARTCHAR brokenbar
ENCODING 166
SWIDTH 606 0
DWIDTH 30 0
BBX 7 45 12 -9
BITMAP
7C
7C
7C
7C
7C
7C
7C
7C
7C
7C
7C
7C
7C
7C
7C
7C
7C
00
00
00
00
00
00
00
00
00
00
00
7C
7C
7C
7C
7C
7C
7C
7C
7C
7C
7C
7C
7C
7C
7C
7C
7C
ENDCHAR

STARTCHAR section
ENCODING 167
SWIDTH 500 0
DWIDTH 25 0
BBX 26 45 0 -10
BITMAP
001FE000
007FF800
01FFF800
03FFF800
07E07800
07801800
0F001800
0F001800
1F001800
1F000000
1F000000
1F800000
1FE00000
0FFC0000
0FFF8000
07FFF000
07FFF800
0FFFFE00
1F1FFE00
1E03FF00
3E007F00
3E003F00
3F001F00
3F801F00
3FF01F00
1FFE1E00
0FFFBE00
07FFFC00
03FFF800
00FFFC00
001FFE00
0003FE00
0000FE00
00007E00
00003E00
0C003E00
0C003C00
0C003C00
0C007C00
0E007800
0F81F000
0FFFE000
0FFFC000
07FF8000
00FE0000
ENDCHAR

STARTCHAR dieresis
ENCODING 168
SWIDTH 333 0
DWIDTH 17 0
BBX 18 6 -1 26
BITMAP
1C0700
3E0F80
7E1F80
7E1F80
3C0F80
3C0F00
ENDCHAR

STARTCHAR copyright
ENCODING 169
SWIDTH 747 0
DWIDTH 37 0
BBX 39 36 -1 -1
BITMAP
0001FF0000
000FFFE000
001F01F800
007C003C00
00F0000E00
01C0000700
0380000380
0700FF11C0
0603E1F0E0
0E07807060
0C0F003070
1C1F003030
183F001030
183E001038
383E000018
307E000018
307E000018
307E000018
307E000018
307E000018
307E000018
383E000018
183E000038
181F000030
1C1F802030
0C0FC06060
0E07E1C060
0701FF00C0
03000001C0
0380000380
01E0000700
00F0001E00
007C003C00
001F81F000
0007FFE000
0001FF0000
ENDCHAR

STARTCHAR ordfeminine
ENCODING 170
SWIDTH 438 0
DWIDTH 22 0
BBX 18 15 2 20
BITMAP
01E000
07F800
1FFC00
187C00
183C00
003C00
01FC00
0FFC00
1E3C00
3C3C00
3C3C00
3E7C00
3FFC00
3FBF00
1E3F00
ENDCHAR

STARTCHAR guillemotleft
ENCODING 171
SWIDTH 500 0
DWIDTH 25 0
BBX 25 19 0 3
BITMAP
00100400
00380E00
00701C00
00F03C00
01E07800
03C0F000
07C1F000
0F83E000
1F87E000
3F0FC000
3F0FC000
1F87E000
0F83E000
07C1F000
03E0F800
01E03800
00701C00
00700C00
00180600
ENDCHAR

STARTCHAR logicalnot
ENCODING 172
SWIDTH 606 0
DWIDTH 30 0
BBX 28 14 1 10
BITMAP
3FFFFFE0
3FFFFFE0
3FFFFFE0
3FFFFFE0
3FFFFFE0
000003E0
000003E0
000003E0
000003E0
000003E0
000003E0
000003E0
000003E0
000003E0
ENDCHAR

STARTCHAR hyphen
ENCODING 173
SWIDTH 333 0
DWIDTH 17 0
BBX 19 6 -1 9
BITMAP
1FFF80
1FFF80
3FFF80
3FFF00
3FFF00
7FFF00
ENDCHAR

STARTCHAR registered
ENCODING 174
SWIDTH 747 0
DWIDTH 37 0
BBX 39 36 -1 -1
BITMAP
0001FF0000
000FFFE000
001F01F800
0078003C00
00F0000E00
01C0000700
0380000380
07000001C0
063FFF80C0
0E0F87C0E0
0C0F83E070
1C0F83F070
180F81F030
180F81F038
380F81F018
300F83F018
300F83E018
300F8FC018
300FFF0018
300F9F0018
300F9F8018
300F8F8018
380F8FC038
180F87C030
180F87E030
1C0F83E070
0C0FC1F060
0E3FF1FCE0
07000001C0
0380000380
01C0000700
00E0000E00
0078003C00
003F01F800
000FFFE000
0001FF0000
ENDCHAR

STARTCHAR macron
ENCODING 175
SWIDTH 333 0
DWIDTH 17 0
BBX 19 3 -1 28
BITMAP
7FFF80
7FFF80
7FFF80
ENDCHAR

STARTCHAR degree
ENCODING 176
SWIDTH 396 0
DWIDTH 20 0
BBX 18 16 1 19
BITMAP
03F000
0FFC00
1FFE00
1E1F00
380700
380780
700380
700380
700380
700380
780780
3C0700
1E1F00
1FFE00
0FFC00
03F000
ENDCHAR

STARTCHAR plusminus
ENCODING 177
SWIDTH 606 0
DWIDTH 30 0
BBX 27 33 2 0
BITMAP
001F0000
001F0000
001F0000
001F0000
001F0000
001F0000
001F0000
001F0000
001F0000
001F0000
7FFFFFC0
7FFFFFC0
7FFFFFC0
7FFFFFC0
7FFFFFC0
001F0000
001F0000
001F0000
001F0000
001F0000
001F0000
001F0000
001F0000
001F0000
001F0000
00000000
00000000
00000000
7FFFFFC0
7FFFFFC0
7FFFFFC0
7FFFFFC0
7FFFFFC0
ENDCHAR

STARTCHAR twosuperior
ENCODING 178
SWIDTH 361 0
DWIDTH 18 0
BBX 18 21 0 14
BITMAP
03E000
0FFC00
1FFE00
1FFE00
183F00
181F00
101F00
301F00
001E00
001E00
003C00
003800
007000
00E000
01C000
038000
060000
1FFF80
3FFF80
3FFF80
3FFF80
ENDCHAR

STARTCHAR threesuperior
ENCODING 179
SWIDTH 361 0
DWIDTH 18 0
BBX 18 21 0 14
BITMAP
07F800
0FFC00
0FFE00
1C3E00
181E00
101E00
001C00
003C00
007000
03FE00
03FF00
007F00
001F00
000F00
000F00
200F00
300E00
381E00
3C3C00
3FF000
1FC000
ENDCHAR

STARTCHAR acute
ENCODING 180
SWIDTH 333 0
DWIDTH 17 0
BBX 15 8 1 26
BITMAP
0038
00F8
01F8
03F8
07E0
0F80
1E00
3800
ENDCHAR

STARTCHAR mu
ENCODING 181
SWIDTH 553 0
DWIDTH 28 0
BBX 29 32 0 -9
BITMAP
1F803F00
1F803F00
1F803F00
1F803F00
1F803F00
1F803F00
1F803F00
1F803F00
1F803F00
1F803F00
1F803F00
1F803F00
1F803F00
1F803F00
1F803F00
1F803F00
1F803F00
1F803F00
1F807F00
1FC1FF00
1FFFBFE0
3FFF3FC0
3DFE1F00
3C780800
3C000000
3C000000
3C000000
7E000000
7E000000
7E000000
7E000000
3C000000
ENDCHAR

STARTCHAR paragraph
ENCODING 182
SWIDTH 641 0
DWIDTH 32 0
BBX 31 46 0 -12
BITMAP
001FFFFC
01FFFFFC
03FFC3C0
07FFC380
0FFFC380
1FFFC380
1FFFC380
3FFFC380
3FFFC380
3FFFC380
3FFFC380
3FFFC380
3FFFC380
3FFFC380
3FFFC380
3FFFC380
1FFFC380
1FFFC380
0FFFC380
0FFFC380
03FFC380
01FFC380
007FC380
0001C380
0001C380
0001C380
0001C380
0001C380
0001C380
0001C380
0001C380
0001C380
0001C380
0001C380
0001C380
0001C380
0001C380
0001C380
0001C380
0001C380
0001C380
0001C380
0001C380
0001C380
0001C380
0001C380
ENDCHAR

STARTCHAR periodcentered
ENCODING 183
SWIDTH 250 0
DWIDTH 13 0
BBX 10 8 1 14
BITMAP
1E00
3F00
7F80
7F80
7F80
7F80
3F00
1E00
ENDCHAR

STARTCHAR cedilla
ENCODING 184
SWIDTH 333 0
DWIDTH 17 0
BBX 15 12 1 -12
BITMAP
0180
0180
0100
03F0
03F8
007C
003C
003C
003C
3078
3FF0
0FC0
ENDCHAR

STARTCHAR onesuperior
ENCODING 185
SWIDTH 361 0
DWIDTH 18 0
BBX 17 20 0 14
BITMAP
007000
03F000
3FF000
3DF000
31F000
01F000
01F000
01F000
01F000
01F000
01F000
01F000
01F000
01F000
01F000
01F000
01F000
01F000
07F800
1FFE00
ENDCHAR

STARTCHAR ordmasculine
ENCODING 186
SWIDTH 488 0
DWIDTH 24 0
BBX 18 15 3 20
BITMAP
03F800
0FFE00
1E1F00
3E1F00
3C0F80
7C0F80
7C0F80
7C0F80
7C0F80
7C0F80
3C0F00
3E0F00
1F1E00
0FFC00
03F000
ENDCHAR

STARTCHAR guillemotright
ENCODING 187
SWIDTH 500 0
DWIDTH 25 0
BBX 25 20 0 2
BITMAP
10040000
380E0000
1C070000
1E038000
0F03C000
0781E000
07C1F000
03E0F800
01F07C00
01F87E00
01F87E00
03F07C00
03E0F800
07C1F000
0781E000
0F03C000
1E078000
1C070000
300E0000
10040000
ENDCHAR

STARTCHAR onequarter
ENCODING 188
SWIDTH 889 0
DWIDTH 44 0
BBX 44 37 0 -1
BITMAP
00000001C000
00000001C000
007000038000
07F000030000
3FF000070000
3DF000060000
21F0000E0000
01F0000C0000
01F0001C0000
01F000180000
01F000380000
01F000300000
01F000700000
01F000600000
01F000E00000
01F000C00300
01F001C01F00
01F001801F00
01F003803F00
01F003006F00
1FFE07006F00
1FFE0600CF00
00000E018F00
00000C018F00
00001C030F00
000018030F00
000038060F00
0000300E0F00
0000700FFFE0
0000600FFFE0
0000E00FFFE0
0000C0000F00
0001C0000F00
000180001F00
00038000FFE0
00030000FFE0
000700000000
ENDCHAR

STARTCHAR onehalf
ENCODING 189
SWIDTH 889 0
DWIDTH 44 0
BBX 44 37 0 -1
BITMAP
000000038000
000000070000
007000070000
03F000060000
3FF0000E0000
3DF0000C0000
21F0001C0000
01F000180000
01F000380000
01F000300000
01F000700000
01F000600000
01F000E00000
01F000C00000
01F001C00000
01F001807C00
01F00383FF00
01F00307FF80
01F00707FF80
01F006060FC0
0FF80E0607C0
1FFE0C0407C0
00001C0407C0
000018000780
000038000780
000030000F00
000070000E00
000060001C00
0000E0003800
0000C0007000
0001C000E000
0001C001C000
00038003FFE0
0003000FFFE0
0007000FFFE0
0007000FFFE0
000E00000000
ENDCHAR

STARTCHAR threequarters
ENCODING 190
SWIDTH 889 0
DWIDTH 44 0
BBX 44 38 0 -2
BITMAP
00000001C000
07F800038000
0FFC00038000
0FFE00070000
1C3E00070000
181E000E0000
101E000E0000
001C001C0000
003C001C0000
007000380000
03FE00380000
03FF00700000
007F00700000
001F00E00000
000F00E00000
000F01C00F00
200F01C01F00
300E03803F00
381E03803F00
3C3C07006F00
3FF00700CF00
1FC00E00CF00
00000E018F00
00001C030F00
00001C030F00
000038060F00
000038060F00
0000700C1F00
0000700FFFE0
0000E01FFFE0
0000E00FFFE0
0001C0001F00
0001C0001F00
000380001F00
00038000FFE0
00070000FFE0
000700000000
000E00000000
ENDCHAR

STARTCHAR questiondown
ENCODING 191
SWIDTH 444 0
DWIDTH 22 0
BBX 21 35 1 -11
BITMAP
003C00
007E00
007F00
00FF00
00FF00
007F00
007E00
001C00
000000
000000
000800
000C00
000C00
000C00
001C00
001C00
003C00
00F800
01F000
03F000
07E000
0FC000
1F8000
3F8000
3F0000
7F0000
7F0060
7F0060
7F80E0
3FC1E0
3FFFC0
1FFFC0
1FFFC0
07FF00
01F800
ENDCHAR

STARTCHAR Agrave
ENCODING 192
SWIDTH 778 0
DWIDTH 39 0
BBX 40 45 0 0
BITMAP
0003C00000
0003E00000
0003F00000
0000FC0000
00007E0000
00001F0000
0000078000
000001C000
0000000000
0000000000
00003C0000
00007C0000
00007E0000
00007E0000
0000FF0000
0000FF0000
0001FF0000
0001FF8000
0001FF8000
0003BFC000
0003BFC000
00071FC000
00071FE000
00070FE000
000E0FF000
000E0FF000
001C07F800
001C07F800
003803F800
003803FC00
003801FC00
007FFFFE00
007FFFFE00
00FFFFFF00
00E000FF00
00E000FF00
01C0007F80
01C0007F80
03C0003FC0
0380003FC0
0780003FC0
0780001FE0
1FC0003FF0
3FF801FFFC
3FF801FFFC
ENDCHAR

STARTCHAR Aacute
ENCODING 193
SWIDTH 778 0
DWIDTH 39 0
BBX 40 45 0 0
BITMAP
000003C000
00000FC000
00001F8000
00003F0000
00007E0000
0000F80000
0001E00000
0003800000
0000000000
0000000000
00003C0000
00007C0000
00007E0000
00007E0000
0000FF0000
0000FF0000
0001FF0000
0001FF8000
0001FF8000
0003BFC000
0003BFC000
00071FC000
00071FE000
00070FE000
000E0FF000
000E0FF000
001C07F800
001C07F800
003803F800
003803FC00
003801FC00
007FFFFE00
007FFFFE00
00FFFFFF00
00E000FF00
00E000FF00
01C0007F80
01C0007F80
03C0003FC0
0380003FC0
0780003FC0
0780001FE0
1FC0003FF0
3FF801FFFC
3FF801FFFC
ENDCHAR

STARTCHAR Acircumflex
ENCODING 194
SWIDTH 778 0
DWIDTH 39 0
BBX 40 46 0 0
BITMAP
00001C0000
00003C0000
00007E0000
0000FF0000
0000F78000
0001C38000
000381C000
000700E000
000E007000
0000000000
0000000000
00003C0000
00007C0000
00007E0000
00007E0000
0000FF0000
0000FF0000
0001FF0000
0001FF8000
0001FF8000
0003BFC000
0003BFC000
00071FC000
00071FE000
00070FE000
000E0FF000
000E0FF000
001C07F800
001C07F800
003803F800
003803FC00
003801FC00
007FFFFE00
007FFFFE00
00FFFFFF00
00E000FF00
00E000FF00
01C0007F80
01C0007F80
03C0003FC0
0380003FC0
0780003FC0
0780001FE0
1FC0003FF0
3FF801FFFC
3FF801FFFC
ENDCHAR

STARTCHAR Atilde
ENCODING 195
SWIDTH 778 0
DWIDTH 39 0
BBX 40 45 0 0
BITMAP
0000000800
0003F01800
0007FE3800
000FFFF000
001C3FE000
00180FC000
0010000000
0000000000
0000000000
0000000000
00003C0000
00007C0000
00007E0000
00007E0000
0000FF0000
0000FF0000
0001FF0000
0001FF8000
0001FF8000
0003BFC000
0003BFC000
00071FC000
00071FE000
00070FE000
000E0FF000
000E0FF000
001C07F800
001C07F800
003803F800
003803FC00
003801FC00
007FFFFE00
007FFFFE00
00FFFFFF00
00E000FF00
00E000FF00
01C0007F80
01C0007F80
03C0003FC0
0380003FC0
0780003FC0
0780001FE0
1FC0003FF0
3FF801FFFC
3FF801FFFC
ENDCHAR

STARTCHAR Adieresis
ENCODING 196
SWIDTH 778 0
DWIDTH 39 0
BBX 40 43 0 0
BITMAP
000781E000
0007C1F000
000FC3F000
000FC3F000
000781E000
000300C000
0000000000
0000000000
00003C0000
00003C0000
00007E0000
00007E0000
0000FE0000
0000FF0000
0001FF0000
0001FF8000
0001FF8000
0003BFC000
0003BFC000
00079FC000
00071FE000
00070FE000
000E0FF000
000E07F000
001C07F000
001C07F800
001C03F800
003803FC00
003801FC00
007FFFFE00
007FFFFE00
007FFFFE00
00E000FF00
00E000FF00
01E0007F80
01C0007F80
01C0007F80
03C0003FC0
0380003FC0
0780003FE0
1FE0003FF0
3FF801FFFC
3FF801FFFC
ENDCHAR

STARTCHAR Aring
ENCODING 197
SWIDTH 778 0
DWIDTH 39 0
BBX 40 47 0 0
BITMAP
00003E0000
0000FF0000
0000E70000
0001C38000
0001C38000
0001C38000
0001C38000
0000E70000
0000FF0000
00003C0000
0000000000
0000000000
00003C0000
00003C0000
00007E0000
00007E0000
0000FE0000
0000FF0000
0000FF0000
0001FF8000
0001FF8000
0003BF8000
00039FC000
00039FC000
00071FE000
00070FE000
000E0FF000
000E0FF000
000E07F000
001C07F800
001C03F800
003803FC00
003803FC00
003FFFFC00
007FFFFE00
007FFFFE00
00E000FF00
00E000FF00
01E0007F80
01C0007F80
01C0007F80
03C0003FC0
0380003FC0
0780003FE0
0FE0003FF0
3FF801FFFC
3FF801FFFC
ENDCHAR

STARTCHAR AE
ENCODING 198
SWIDTH 1000 0
DWIDTH 50 0
BBX 51 34 -1 0
BITMAP
00007FFFFFFF00
00007FFFFFFF00
00000FFFFFFF00
000007BF800700
0000073F800700
00000F3F800300
00000E3F800300
00001E3F800300
00001C3F800000
0000383F800000
0000783F800000
0000703F801800
0000E03F801800
0000E03F801800
0001C03F803800
0003C03FFFF800
0003803FFFF800
0007003F807800
000F003F803800
000E003F801800
001FFFFF801800
003FFFFF800000
003FFFFF800000
0078003F800000
0070003F800000
00F0003F800180
01E0003F800180
01C0003F800380
03C0003F800380
0380003F800300
0780003F800300
0FC0007FFFFF00
3FF801FFFFFF00
3FF801FFFFFF00
ENDCHAR

STARTCHAR Ccedilla
ENCODING 199
SWIDTH 722 0
DWIDTH 36 0
BBX 36 48 1 -13
BITMAP
0000FFF000
0007FFFF00
003FFFFFC0
007FC03FC0
01FE0007C0
03FC0003C0
07F80001C0
0FF00001C0
0FE0000180
1FC0000180
1FC0000180
3FC0000000
3F80000000
3F80000000
3F80000000
7F80000000
7F80000000
7F80000000
7F80000000
7F80000000
7F80000000
3F80000000
3FC0000000
3FC0000000
3FC0000000
1FE0000000
1FE0000000
0FF0000000
0FF8000000
07FC000000
03FE000040
01FF8001C0
00FFF01F80
003FFFFF80
000FFFFE00
0001FFF000
0000180000
0000180000
0000380000
00003F8000
00003FC000
000003E000
000001E000
000001E000
000001E000
000383C000
0003FF8000
0000FE0000
ENDCHAR

STARTCHAR Egrave
ENCODING 200
SWIDTH 611 0
DWIDTH 31 0
BBX 30 45 0 0
BITMAP
00380000
003C0000
007E0000
003F0000
001F8000
0007C000
0001E000
00007000
00000000
00000000
00000000
3FFFFFF0
3FFFFFF0
07FFFFF0
03F80070
03F80070
03F80030
03F80030
03F80000
03F80000
03F80000
03F80000
03F80180
03F80180
03F80180
03F80380
03FFFF80
03FFFF80
03F80380
03F80180
03F80180
03F80180
03F80180
03F80000
03F80000
03F80000
03F80018
03F80018
03F80038
03F80030
03F80030
03F80030
07FFFFF0
1FFFFFF0
1FFFFFF0
ENDCHAR

STARTCHAR Eacute
ENCODING 201
SWIDTH 611 0
DWIDTH 31 0
BBX 30 45 0 0
BITMAP
00003000
00007800
0000F800
0003F800
0007E000
000F8000
001E0000
003C0000
00000000
00000000
00000000
3FFFFFF0
3FFFFFF0
07FFFFF0
03F80070
03F80070
03F80030
03F80030
03F80000
03F80000
03F80000
03F80000
03F80180
03F80180
03F80180
03F80380
03FFFF80
03FFFF80
03F80380
03F80180
03F80180
03F80180
03F80180
03F80000
03F80000
03F80000
03F80018
03F80018
03F80038
03F80030
03F80030
03F80030
07FFFFF0
1FFFFFF0
1FFFFFF0
ENDCHAR

STARTCHAR Ecircumflex
ENCODING 202
SWIDTH 611 0
DWIDTH 31 0
BBX 30 45 0 0
BITMAP
00038000
0007C000
000FE000
001FF000
001EF000
00383800
00701C00
00E00C00
00000000
00000000
00000000
3FFFFFF0
3FFFFFF0
07FFFFF0
03F80070
03F80070
03F80030
03F80030
03F80000
03F80000
03F80000
03F80000
03F80180
03F80180
03F80180
03F80380
03FFFF80
03FFFF80
03F80380
03F80180
03F80180
03F80180
03F80180
03F80000
03F80000
03F80000
03F80018
03F80018
03F80038
03F80030
03F80030
03F80030
07FFFFF0
1FFFFFF0
1FFFFFF0
ENDCHAR

STARTCHAR Edieresis
ENCODING 203
SWIDTH 611 0
DWIDTH 31 0
BBX 30 43 0 0
BITMAP
00F03C00
00F83E00
01F87E00
01F87E00
01F07E00
00F03C00
00000000
00000000
00000000
3FFFFFF0
3FFFFFF0
07FFFFF0
03F80060
03F80060
03F80060
03F80060
03F80000
03F80000
03F80000
03F80000
03F80300
03F80300
03F80300
03F80700
03FFFF00
03FFFF00
03F80700
03F80300
03F80300
03F80300
03F80300
03F80000
03F80000
03F80000
03F80030
03F80030
03F80030
03F80030
03F80070
03F80070
07FFFFF0
1FFFFFF0
1FFFFFF0
ENDCHAR

STARTCHAR Igrave
ENCODING 204
SWIDTH 389 0
DWIDTH 19 0
BBX 19 45 0 0
BITMAP
060000
0F0000
0F8000
0FC000
03E000
00F800
003C00
001E00
000000
000000
000000
3FFFC0
3FFFC0
07FC00
03F800
03F800
03F800
03F800
03F800
03F800
03F800
03F800
03F800
03F800
03F800
03F800
03F800
03F800
03F800
03F800
03F800
03F800
03F800
03F800
03F800
03F800
03F800
03F800
03F800
03F800
03F800
03F800
07FC00
3FFFC0
3FFFC0
ENDCHAR

STARTCHAR Iacute
ENCODING 205
SWIDTH 389 0
DWIDTH 19 0
BBX 19 45 0 0
BITMAP
000E00
001E00
003E00
007E00
00F800
01E000
03C000
070000
000000
000000
000000
3FFFC0
3FFFC0
07FC00
03F800
03F800
03F800
03F800
03F800
03F800
03F800
03F800
03F800
03F800
03F800
03F800
03F800
03F800
03F800
03F800
03F800
03F800
03F800
03F800
03F800
03F800
03F800
03F800
03F800
03F800
03F800
03F800
07FC00
3FFFC0
3FFFC0
ENDCHAR

STARTCHAR Icircumflex
ENCODING 206
SWIDTH 389 0
DWIDTH 19 0
BBX 19 45 0 0
BITMAP
00F000
01F000
01F800
03FC00
079C00
0E0E00
1C0700
380380
000000
000000
000000
3FFFC0
3FFFC0
07FC00
03F800
03F800
03F800
03F800
03F800
03F800
03F800
03F800
03F800
03F800
03F800
03F800
03F800
03F800
03F800
03F800
03F800
03F800
03F800
03F800
03F800
03F800
03F800
03F800
03F800
03F800
03F800
03F800
07FC00
3FFFC0
3FFFC0
ENDCHAR

STARTCHAR Idieresis
ENCODING 207
SWIDTH 389 0
DWIDTH 19 0
BBX 19 43 0 0
BITMAP
1E0780
1F07C0
3F0FC0
3F0FC0
1E07C0
1E0780
000000
000000
000000
3FFFC0
3FFFC0
07FC00
03F800
03F800
03F800
03F800
03F800
03F800
03F800
03F800
03F800
03F800
03F800
03F800
03F800
03F800
03F800
03F800
03F800
03F800
03F800
03F800
03F800
03F800
03F800
03F800
03F800
03F800
03F800
03F800
07FC00
3FFFC0
3FFFC0
ENDCHAR

STARTCHAR Gbreve
ENCODING 208
SWIDTH 833 0
DWIDTH 42 0
BBX 40 46 1 -1
BITMAP
000C002000
000C006000
0006006000
000700E000
000783C000
0003FFC000
0001FF8000
00007E0000
0000000000
0000000000
00003FF000
0007FFFF80
001FFFFFF0
007FC00FF0
01FE0003E0
03FC0001E0
07F80000E0
0FF00000E0
0FE0000060
1FC0000060
1FC0000060
3FC0000000
3F80000000
3F80000000
3F80000000
7F80000000
7F80000000
7F80000000
7F80000000
7F80000000
7F80000000
3F8001FFFC
3F8001FFFC
3FC0000FF0
3FC00007F0
1FE00007F0
1FE00007F0
0FF00007F0
07F00007F0
07F80007F0
03FE0007F0
01FF0007F0
007FC01FF0
003FFFFFC0
0007FFFE00
00007FC000
ENDCHAR

STARTCHAR Ntilde
ENCODING 209
SWIDTH 833 0
DWIDTH 42 0
BBX 42 45 0 -1
BITMAP
0000000C0000
0001F80C0000
0007FF180000
0007FFF80000
000E3FF00000
000C07E00000
000000000000
000000000000
000000000000
000000000000
7FF0000FFF00
7FF8000FFF00
07FC0000F000
03FE0000F000
03FF0000F000
03FF00007000
03FF80007000
03FFC0007000
03BFE0007000
03BFF0007000
039FF8007000
038FF8007000
0387FC007000
0383FE007000
0383FF007000
0381FF807000
0380FF807000
03807FC07000
03803FE07000
03801FF07000
03801FF87000
03800FFC7000
038007FE7000
038003FF7000
038001FF7000
038000FFF000
0380007FF000
0380007FF000
0380003FF000
0380001FF000
0380000FF000
07C00007F000
7FF80003F000
7FF80001F000
000000007000
ENDCHAR

STARTCHAR Ograve
ENCODING 210
SWIDTH 833 0
DWIDTH 42 0
BBX 40 46 1 -1
BITMAP
0001C00000
0003E00000
0003F00000
0001F80000
00007C0000
00001E0000
00000F0000
0000038000
0000000000
0000000000
0000FF8000
000FFFF800
003FFFFE00
00FF00FF80
01FC003FC0
03F0001FE0
07F0000FF0
0FE00007F0
0FC00007F8
1FC00003F8
1FC00003FC
3F800003FC
3F800001FC
3F800001FE
3F800001FE
7F800001FE
7F800001FE
7F800001FE
7F800001FE
7F800001FE
7F800001FE
7F800001FC
3F800001FC
3F800001FC
3FC00001FC
3FC00003F8
1FC00003F8
1FE00003F0
0FE00007E0
07F0000FE0
07F8000FC0
03FC003F80
00FF00FE00
007FFFFC00
000FFFE000
0001FE0000
ENDCHAR

STARTCHAR Oacute
ENCODING 211
SWIDTH 833 0
DWIDTH 42 0
BBX 40 46 1 -1
BITMAP
0000038000
000007C000
00000FC000
00001F8000
00003E0000
0000780000
0000F00000
0001C00000
0000000000
0000000000
0000FF8000
000FFFF800
003FFFFE00
00FF00FF80
01FC003FC0
03F0001FE0
07F0000FF0
0FE00007F0
0FC00007F8
1FC00003F8
1FC00003FC
3F800003FC
3F800001FC
3F800001FE
3F800001FE
7F800001FE
7F800001FE
7F800001FE
7F800001FE
7F800001FE
7F800001FE
7F800001FC
3F800001FC
3F800001FC
3FC00001FC
3FC00003F8
1FC00003F8
1FE00003F0
0FE00007E0
07F0000FE0
07F8000FC0
03FC003F80
00FF00FE00
007FFFFC00
000FFFE000
0001FE0000
ENDCHAR

STARTCHAR Ocircumflex
ENCODING 212
SWIDTH 833 0
DWIDTH 42 0
BBX 40 46 1 -1
BITMAP
00003C0000
00003E0000
00007F0000
0000FF0000
0001E38000
0003C1C000
000300E000
0006006000
0000000000
0000000000
0000FF8000
000FFFF800
003FFFFE00
00FF00FF80
01FC003FC0
03F0001FE0
07F0000FF0
0FE00007F0
0FC00007F8
1FC00003F8
1FC00003FC
3F800003FC
3F800001FC
3F800001FE
3F800001FE
7F800001FE
7F800001FE
7F800001FE
7F800001FE
7F800001FE
7F800001FE
7F800001FC
3F800001FC
3F800001FC
3FC00001FC
3FC00003F8
1FC00003F8
1FE00003F0
0FE00007E0
07F0000FE0
07F8000FC0
03FC003F80
00FF00FE00
007FFFFC00
000FFFE000
0001FE0000
ENDCHAR

STARTCHAR Otilde
ENCODING 213
SWIDTH 833 0
DWIDTH 42 0
BBX 40 45 1 -1
BITMAP
0000000800
0003F01800
0007FE3800
000FFFF000
001C3FE000
001807C000
0000000000
0000000000
0000000000
0000FF8000
000FFFF800
003FFFFE00
00FF00FF80
01FC003FC0
03F0001FE0
07F0000FF0
0FE00007F0
0FC00007F8
1FC00003F8
1FC00003FC
3F800003FC
3F800001FC
3F800001FE
3F800001FE
7F800001FE
7F800001FE
7F800001FE
7F800001FE
7F800001FE
7F800001FE
7F800001FC
3F800001FC
3F800001FC
3FC00001FC
3FC00003F8
1FC00003F8
1FE00003F0
0FE00007E0
07F0000FE0
07F8000FC0
03FC003F80
00FF00FE00
007FFFFC00
000FFFE000
0001FE0000
ENDCHAR

STARTCHAR Odieresis
ENCODING 214
SWIDTH 833 0
DWIDTH 42 0
BBX 40 44 1 -1
BITMAP
000781E000
0007C1F000
000FC3F000
000FC3F000
000781F000
000700E000
0000000000
0000000000
0000FF8000
000FFFF800
003FFFFE00
00FF00FF80
01FC003FC0
03F0001FE0
07F0000FF0
0FE00007F0
0FC00007F8
1FC00003F8
1FC00003FC
3F800003FC
3F800001FC
3F800001FE
3F800001FE
7F800001FE
7F800001FE
7F800001FE
7F800001FE
7F800001FE
7F800001FE
7F800001FC
3F800001FC
3F800001FC
3FC00001FC
3FC00003F8
1FE00003F8
1FE00003F0
0FF00007E0
07F0000FE0
03F8001FC0
01FC003F80
00FF00FE00
007FFFFC00
000FFFE000
0000FE0000
ENDCHAR

STARTCHAR multiply
ENCODING 215
SWIDTH 606 0
DWIDTH 30 0
BBX 24 21 3 6
BITMAP
0C0018
1E003C
3F007E
3F80FC
1FC1F8
0FE7F0
07FFE0
03FFC0
01FF80
00FF00
007F00
00FF80
01FFC0
03FFE0
07E7F0
0FC3F8
1F81FC
3F00FE
1E007C
0C0038
000010
ENDCHAR

STARTCHAR Oslash
ENCODING 216
SWIDTH 833 0
DWIDTH 42 0
BBX 43 37 -1 -1
BITMAP
000000000300
00003FE00780
0003FFFE0F00
000FFFFF9E00
003FC03FFC00
007F000FF800
00FC0007F800
01FC0003FC00
03F80003FC00
03F00007FE00
07F0000FFE00
07F0001EFF00
0FE0003CFF00
0FE000787F00
0FE000F07F80
0FE001E07F80
1FE003C07F80
1FE007807F80
1FE00F007F80
1FE01E007F80
1FE03C007F80
1FE078007F80
1FE1F0007F00
0FE3E0007F00
0FE7C0007F00
0FFF80007F00
0FFE0000FE00
07FC0000FE00
07F80000FC00
03FC0001F800
01FC0003F800
03FE0003F000
07FF000FE000
0F3FC03F8000
1E1FFFFF0000
3C07FFF80000
18007F800000
ENDCHAR

STARTCHAR Ugrave
ENCODING 217
SWIDTH 778 0
DWIDTH 39 0
BBX 40 46 0 -1
BITMAP
0001800000
0003C00000
0003E00000
0003F00000
0000F80000
00007E0000
00001F0000
0000078000
0000000000
0000000000
0000000000
3FFF801FFC
3FFF801FFC
07FC0003E0
03F80001C0
03F80001C0
03F80001C0
03F80001C0
03F80001C0
03F80001C0
03F80001C0
03F80001C0
03F80001C0
03F80001C0
03F80001C0
03F80001C0
03F80001C0
03F80001C0
03F80001C0
03F80001C0
03F80001C0
03F80001C0
03F80001C0
03F80001C0
03F80001C0
03F80001C0
03F80001C0
03FC0003C0
03FC000380
01FE000780
01FF000F00
00FFC07F00
007FFFFE00
003FFFFC00
000FFFF000
0001FF8000
ENDCHAR

STARTCHAR Uacute
ENCODING 218
SWIDTH 778 0
DWIDTH 39 0
BBX 40 46 0 -1
BITMAP
0000018000
000007C000
00000FC000
00001F8000
00003F0000
00007C0000
0000F00000
0001C00000
0000000000
0000000000
0000000000
3FFF801FFC
3FFF801FFC
07FC0003E0
03F80001C0
03F80001C0
03F80001C0
03F80001C0
03F80001C0
03F80001C0
03F80001C0
03F80001C0
03F80001C0
03F80001C0
03F80001C0
03F80001C0
03F80001C0
03F80001C0
03F80001C0
03F80001C0
03F80001C0
03F80001C0
03F80001C0
03F80001C0
03F80001C0
03F80001C0
03F80001C0
03FC0003C0
03FC000380
01FE000780
01FF000F00
00FFC07F00
007FFFFE00
003FFFFC00
000FFFF000
0001FF8000
ENDCHAR

STARTCHAR Ucircumflex
ENCODING 219
SWIDTH 778 0
DWIDTH 39 0
BBX 40 46 0 -1
BITMAP
00003C0000
00003C0000
00007E0000
0000FF0000
0001E78000
0003C38000
000381C000
000600E000
000C006000
0000000000
0000000000
3FFF801FFC
3FFF801FFC
07FC0003E0
03F80001C0
03F80001C0
03F80001C0
03F80001C0
03F80001C0
03F80001C0
03F80001C0
03F80001C0
03F80001C0
03F80001C0
03F80001C0
03F80001C0
03F80001C0
03F80001C0
03F80001C0
03F80001C0
03F80001C0
03F80001C0
03F80001C0
03F80001C0
03F80001C0
03F80001C0
03F80001C0
03FC0003C0
03FC000380
01FE000780
01FF000F00
00FFC07F00
007FFFFE00
003FFFFC00
000FFFF000
0001FF8000
ENDCHAR

STARTCHAR Udieresis
ENCODING 220
SWIDTH 778 0
DWIDTH 39 0
BBX 40 43 0 -1
BITMAP
000781E000
0007C1F000
000FC3F000
000FC3F000
000781E000
000300C000
0000000000
0000000000
3FFF801FFC
3FFF801FFC
07FC0003E0
03F80001C0
03F80001C0
03F80001C0
03F80001C0
03F80001C0
03F80001C0
03F80001C0
03F80001C0
03F80001C0
03F80001C0
03F80001C0
03F80001C0
03F80001C0
03F80001C0
03F80001C0
03F80001C0
03F80001C0
03F80001C0
03F80001C0
03F80001C0
03F80001C0
03F80001C0
03F80001C0
03FC0003C0
03FC000380
01FE000780
01FF000F00
00FFC07F00
007FFFFE00
003FFFFC00
000FFFF000
0001FF8000
ENDCHAR

STARTCHAR Idotaccent
ENCODING 221
SWIDTH 389 0
DWIDTH 19 0
BBX 19 44 0 0
BITMAP
00F000
00F800
01F800
01F800
00F800
00F000
000000
000000
000000
000000
3FFFC0
3FFFC0
07FC00
03F800
03F800
03F800
03F800
03F800
03F800
03F800
03F800
03F800
03F800
03F800
03F800
03F800
03F800
03F800
03F800
03F800
03F800
03F800
03F800
03F800
03F800
03F800
03F800
03F800
03F800
03F800
03F800
07FC00
3FFFC0
3FFFC0
ENDCHAR

STARTCHAR Scedilla
ENCODING 222
SWIDTH 611 0
DWIDTH 31 0
BBX 29 47 1 -12
BITMAP
000FF000
007FFE00
01FFFF80
07F01F80
0FC00780
0F800380
1F800380
1F000380
3F000300
3F000300
3F000000
3F800000
3FC00000
3FF00000
1FFF8000
1FFFFC00
0FFFFF00
0FFFFF80
03FFFFC0
00FFFFC0
0007FFE0
00003FE0
00001FE0
00000FE0
000007E0
380007E0
380007E0
380007E0
380007C0
380007C0
3C000F80
3E001F00
3F807E00
3FFFFC00
0FFFF000
00FF8000
00060000
000C0000
000F8000
001FE000
0001F000
0000F000
0000F000
0000E000
00C1E000
01FFC000
003F0000
ENDCHAR

STARTCHAR germandbls
ENCODING 223
SWIDTH 611 0
DWIDTH 31 0
BBX 30 37 0 -1
BITMAP
0003FC00
000FFF00
001FFF00
003C1F80
00780FC0
00F007C0
01F003C0
03E003C0
03E003C0
07E003C0
07E003C0
07E00380
07E00380
07E01F80
0FE07F80
1FE06100
7FE0E000
07E1C000
07E3E000
07E3F000
07E3FC00
07E3FF00
07E3FF80
07E1FFC0
07E0FFE0
07E07FF0
07E03FF0
07E00FF0
07E003F0
07E003F0
07E301E0
07E301E0
07E301C0
07E38380
7FFFFF00
7FFFFE00
0000F800
ENDCHAR

STARTCHAR agrave
ENCODING 224
SWIDTH 500 0
DWIDTH 25 0
BBX 25 35 1 -1
BITMAP
01C00000
03E00000
03F00000
01F80000
007C0000
001E0000
00070000
0001C000
00000000
00000000
007E0000
01FFC000
07FFE000
1FFFE000
1C0FF000
1C07F000
1807F000
0003F000
0003F000
0003F000
001FF000
01FFF000
0FF3F000
1F83F000
3F03F000
7E03F000
7E03F000
7E03F000
7E07F000
7F0FF000
7FFFF000
3FFBF800
3FE3FE00
1FC3FE00
07800000
ENDCHAR

STARTCHAR aacute
ENCODING 225
SWIDTH 500 0
DWIDTH 25 0
BBX 25 35 1 -1
BITMAP
0003C000
0007C000
000FC000
001F8000
003E0000
00780000
00F00000
01C00000
00000000
00000000
007E0000
01FFC000
07FFE000
1FFFE000
1C0FF000
1C07F000
1807F000
0003F000
0003F000
0003F000
001FF000
01FFF000
0FF3F000
1F83F000
3F03F000
7E03F000
7E03F000
7E03F000
7E07F000
7F0FF000
7FFFF000
3FFBF800
3FE3FE00
1FC3FE00
07800000
ENDCHAR

STARTCHAR acircumflex
ENCODING 226
SWIDTH 500 0
DWIDTH 25 0
BBX 25 35 1 -1
BITMAP
001C0000
003E0000
007F0000
00FF0000
01E38000
03C1C000
0380E000
06006000
00000000
00000000
007E0000
01FFC000
07FFE000
1FFFE000
1C0FF000
1C07F000
1807F000
0003F000
0003F000
0003F000
001FF000
01FFF000
0FF3F000
1F83F000
3F03F000
7E03F000
7E03F000
7E03F000
7E07F000
7F0FF000
7FFFF000
3FFBF800
3FE3FE00
1FC3FE00
07800000
ENDCHAR

STARTCHAR atilde
ENCODING 227
SWIDTH 500 0
DWIDTH 25 0
BBX 25 34 1 -1
BITMAP
00000800
03F01800
07FE3800
0FFFF000
1C3FF000
1807C000
00000000
00000000
00000000
007E0000
01FFC000
07FFE000
1FFFE000
1C0FF000
1C07F000
1807F000
0003F000
0003F000
0003F000
001FF000
01FFF000
0FF3F000
1F83F000
3F03F000
7E03F000
7E03F000
7E03F000
7E07F000
7F0FF000
7FFFF000
3FFBF800
3FE3FE00
1FC3FE00
07800000
ENDCHAR

STARTCHAR adieresis
ENCODING 228
SWIDTH 500 0
DWIDTH 25 0
BBX 25 33 1 -1
BITMAP
0780E000
07C1F000
0FC3F000
0FC3F000
07C1F000
0781E000
00000000
00000000
007E0000
01FFC000
07FFE000
1FFFE000
1C0FF000
1C07F000
1807F000
0003F000
0003F000
0003F000
001FF000
01FFF000
0FF3F000
1F83F000
3F03F000
7E03F000
7E03F000
7E03F000
7E07F000
7F0FF000
7FFFF000
3FFBF800
3FE3FE00
1FC3FE00
07800000
ENDCHAR

STARTCHAR aring
ENCODING 229
SWIDTH 500 0
DWIDTH 25 0
BBX 25 37 1 -1
BITMAP
003E0000
00FF0000
00E70000
01C38000
01C38000
01C38000
01C38000
00E70000
00FF0000
003C0000
00000000
00000000
007E0000
01FFC000
07FFE000
1FFFE000
1C0FF000
1C07F000
1807F000
0003F000
0003F000
0003F000
001FF000
01FFF000
0FF3F000
1F83F000
3F03F000
7E03F000
7E03F000
7E03F000
7E07F000
7F0FF000
7FFFF000
3FFBF800
3FE3FE00
1FC3FE00
07800000
ENDCHAR

STARTCHAR ae
ENCODING 230
SWIDTH 778 0
DWIDTH 39 0
BBX 38 25 0 -1
BITMAP
003F00FC00
00FFC3FF00
03FFEFFFC0
07FFFF0FE0
0E07FE07E0
0C03FC07F0
0C01FC03F0
0001FC03F0
0001FC03F0
0001FC03F0
0001FFFFF0
003FFFFFF0
01FFFFFF80
0FF1FC0000
1FC1FC0000
1F81FC0000
3F01FC0000
3F01FE0000
3F01FF0000
3F83FF8000
3FC77FC060
3FFE3FFFE0
1FFC1FFFC0
0FF007FF80
07E000FC00
ENDCHAR

STARTCHAR ccedilla
ENCODING 231
SWIDTH 444 0
DWIDTH 22 0
BBX 22 36 0 -12
BITMAP
000FC0
003FF8
00FFF0
01FFF0
07C0F0
0F8070
0F8070
1F0030
1F0030
3F0000
3F0000
3F0000
3F0000
3F0000
3F8000
3F8000
3F8000
3FC000
1FE000
1FF000
0FFC18
07FFF0
03FFF0
00FFC0
000C00
001800
001800
003F80
003FC0
0003E0
0001E0
0001E0
0001E0
0383C0
03FF80
007E00
ENDCHAR

STARTCHAR egrave
ENCODING 232
SWIDTH 500 0
DWIDTH 25 0
BBX 24 35 1 -1
BITMAP
03C000
03E000
03F000
01F800
00FC00
003E00
000F00
000380
000000
000000
003F00
00FFC0
03FFF0
0783F8
0F81F8
1F01FC
3F00FC
3F00FC
3E00FC
7E00FC
7FFFFC
7FFFFC
7FFFE0
7F0000
7F0000
7F0000
7F0000
3F8000
3FC000
3FE000
1FF01C
0FFFF8
07FFF8
01FFE0
003F00
ENDCHAR

STARTCHAR eacute
ENCODING 233
SWIDTH 500 0
DWIDTH 25 0
BBX 24 35 1 -1
BITMAP
000380
0007C0
001F80
003F80
007E00
00F800
01E000
038000
000000
000000
003F00
00FFC0
03FFF0
0783F8
0F81F8
1F01FC
3F00FC
3F00FC
3E00FC
7E00FC
7FFFFC
7FFFFC
7FFFE0
7F0000
7F0000
7F0000
7F0000
3F8000
3FC000
3FE000
1FF01C
0FFFF8
07FFF8
01FFE0
003F00
ENDCHAR

STARTCHAR ecircumflex
ENCODING 234
SWIDTH 500 0
DWIDTH 25 0
BBX 24 35 1 -1
BITMAP
003C00
007E00
00FE00
00FF00
01C780
0383C0
0700C0
0E0060
000000
000000
003F00
00FFC0
03FFF0
0783F8
0F81F8
1F01FC
3F00FC
3F00FC
3E00FC
7E00FC
7FFFFC
7FFFFC
7FFFE0
7F0000
7F0000
7F0000
7F0000
3F8000
3FC000
3FE000
1FF01C
0FFFF8
07FFF8
01FFE0
003F00
ENDCHAR

STARTCHAR edieresis
ENCODING 235
SWIDTH 500 0
DWIDTH 25 0
BBX 24 33 1 -1
BITMAP
0381E0
07C1F0
0FC3F0
0FC3F0
07C1F0
0781E0
000000
000000
001F00
00FFC0
01FFF0
07C3F8
0F81F8
1F80FC
1F00FC
3F00FC
3F00FC
3F00FC
3FFFFC
3FFFFC
3FFFE0
3F0000
3F0000
3F8000
3F8000
3F8000
1FC000
1FE000
0FF01C
0FFFF8
03FFF8
01FFE0
003F00
ENDCHAR

STARTCHAR igrave
ENCODING 236
SWIDTH 333 0
DWIDTH 17 0
BBX 16 34 0 0
BITMAP
1C00
3E00
3F00
1F80
07C0
01E0
0070
0018
0000
0000
0020
01E0
7FE0
7FE0
0FE0
07E0
07E0
07E0
07E0
07E0
07E0
07E0
07E0
07E0
07E0
07E0
07E0
07E0
07E0
07E0
07E0
0FF0
7FFE
7FFE
ENDCHAR

STARTCHAR iacute
ENCODING 237
SWIDTH 333 0
DWIDTH 17 0
BBX 16 34 0 0
BITMAP
003C
007C
00FC
01F8
03E0
0780
0E00
3800
0000
0000
0020
01E0
7FE0
7FE0
0FE0
07E0
07E0
07E0
07E0
07E0
07E0
07E0
07E0
07E0
07E0
07E0
07E0
07E0
07E0
07E0
07E0
0FF0
7FFE
7FFE
ENDCHAR

STARTCHAR icircumflex
ENCODING 238
SWIDTH 333 0
DWIDTH 17 0
BBX 18 34 -1 0
BITMAP
01E000
01F000
03F800
07F800
0F3C00
1E0E00
380700
300300
000000
000000
001000
00F000
3FF000
3FF000
07F000
03F000
03F000
03F000
03F000
03F000
03F000
03F000
03F000
03F000
03F000
03F000
03F000
03F000
03F000
03F000
03F000
07F800
3FFF00
3FFF00
ENDCHAR

STARTCHAR idieresis
ENCODING 239
SWIDTH 333 0
DWIDTH 17 0
BBX 18 32 -1 0
BITMAP
1C0700
3E0F80
7E1F80
7E1F80
3E0F80
1C0700
000000
000000
001000
01F000
3FF000
3FF000
07F000
03F000
03F000
03F000
03F000
03F000
03F000
03F000
03F000
03F000
03F000
03F000
03F000
03F000
03F000
03F000
03F000
07F800
3FFF00
3FFF00
ENDCHAR

STARTCHAR gbreve
ENCODING 240
SWIDTH 556 0
DWIDTH 28 0
BBX 30 47 0 -13
BITMAP
01800400
01800C00
00C00C00
00C01C00
00F07800
007FF800
003FF000
001FC000
00000000
00000000
00FF8000
03FFF000
07E3FFF0
0FC0FFF0
1F80FFE0
3F807E00
3F007E00
3F007E00
3F007E00
3F807E00
3F807C00
1F80FC00
1FC0F800
0FE3F000
07FFE000
01FF8000
01800000
07000000
0F000000
1F800000
1FFFFF00
1FFFFFC0
1FFFFFC0
0FFFFFE0
03FFFFE0
07000FE0
1E0007E0
3C0007E0
7C0007C0
7C0007C0
7C0007C0
7C000780
3E000F00
3F001E00
1FC0FC00
0FFFF000
01FFC000
ENDCHAR

STARTCHAR ntilde
ENCODING 241
SWIDTH 611 0
DWIDTH 31 0
BBX 31 34 0 0
BITMAP
00000180
003F0100
00FFC300
00FFFF00
01C7FE00
0100FC00
03000000
00000000
00000000
00000000
0061FE00
07E3FF00
7FE7FF80
7FEFFFC0
07FC7FC0
07F01FC0
07E01FC0
07E00FC0
07E00FC0
07E00FC0
07E00FC0
07E00FC0
07E00FC0
07E00FC0
07E00FC0
07E00FC0
07E00FC0
07E00FC0
07E00FC0
07E00FC0
07E00FC0
0FF00FE0
7FFE1FFC
7FFE1FFC
ENDCHAR

STARTCHAR ograve
ENCODING 242
SWIDTH 556 0
DWIDTH 28 0
BBX 26 35 1 -1
BITMAP
01F00000
01F80000
00FC0000
007E0000
001F0000
000F8000
0003C000
0000E000
00000000
00000000
00FFC000
03FFF800
07E1FC00
0FC0FE00
1F807E00
1F807F00
3F007F00
3F003F80
3F003F80
7F003F80
7F003F80
7F003F80
7F003F80
7F003F80
7F003F80
7F003F80
3F003F00
3F803F00
3F803F00
1F803E00
1FC07E00
0FC0FC00
07F1F800
03FFE000
00FF8000
ENDCHAR

STARTCHAR oacute
ENCODING 243
SWIDTH 556 0
DWIDTH 28 0
BBX 26 35 1 -1
BITMAP
0001E000
0007E000
000FC000
001F8000
003F0000
007C0000
00F00000
01C00000
00000000
00000000
00FFC000
03FFF800
07E1FC00
0FC0FE00
1F807E00
1F807F00
3F007F00
3F003F80
3F003F80
7F003F80
7F003F80
7F003F80
7F003F80
7F003F80
7F003F80
7F003F80
3F003F00
3F803F00
3F803F00
1F803E00
1FC07E00
0FC0FC00
07F1F800
03FFE000
00FF8000
ENDCHAR

STARTCHAR ocircumflex
ENCODING 244
SWIDTH 556 0
DWIDTH 28 0
BBX 26 36 1 -1
BITMAP
000E0000
001F0000
003F0000
007F8000
007BC000
00E1C000
01C0E000
03807000
07003800
00000000
00000000
00FFC000
03FFF800
07E1FC00
0FC0FE00
1F807E00
1F807F00
3F007F00
3F003F80
3F003F80
7F003F80
7F003F80
7F003F80
7F003F80
7F003F80
7F003F80
7F003F80
3F003F00
3F803F00
3F803F00
1F803E00
1FC07E00
0FC0FC00
07F1F800
03FFE000
00FF8000
ENDCHAR

STARTCHAR otilde
ENCODING 245
SWIDTH 556 0
DWIDTH 28 0
BBX 26 35 1 -1
BITMAP
00000400
01F80C00
03FF1C00
07FFF800
061FF800
0C07E000
0C000000
00000000
00000000
00000000
00FFC000
03FFF800
07E1FC00
0FC0FE00
1F807E00
1F807F00
3F007F00
3F003F80
3F003F80
7F003F80
7F003F80
7F003F80
7F003F80
7F003F80
7F003F80
7F003F80
3F003F00
3F803F00
3F803F00
1F803E00
1FC07E00
0FC0FC00
07F1F800
03FFE000
00FF8000
ENDCHAR

STARTCHAR odieresis
ENCODING 246
SWIDTH 556 0
DWIDTH 28 0
BBX 26 33 1 -1
BITMAP
03C07000
03E0F800
07E1F800
07E1F800
03C0F000
01806000
00000000
00000000
00FFC000
03FFF800
07E1FC00
0FC0FE00
1F807E00
1F807F00
3F007F00
3F003F80
3F003F80
7F003F80
7F003F80
7F003F80
7F003F80
7F003F80
7F003F80
7F003F80
3F003F00
3F803F00
3F803F00
1F803E00
1FC07E00
0FC0FC00
07F1F800
03FFE000
00FF8000
ENDCHAR

STARTCHAR divide
ENCODING 247
SWIDTH 606 0
DWIDTH 30 0
BBX 28 23 2 5
BITMAP
000E0000
001F0000
003F8000
003F8000
003F8000
001F0000
000E0000
00000000
00000000
7FFFFFC0
7FFFFFC0
7FFFFFC0
7FFFFFC0
7FFFFFC0
00000000
00000000
000E0000
001F0000
003F8000
003F8000
003F8000
001F0000
000E0000
ENDCHAR

STARTCHAR oslash
ENCODING 248
SWIDTH 556 0
DWIDTH 28 0
BBX 30 28 -1 -2
BITMAP
00000020
00000070
003FF0F0
00FFFFE0
01F8FFC0
03F03F80
07E01F80
07E01FC0
0FC01FC0
0FC03FE0
0FC07FE0
1FC0EFE0
1FC1CFE0
1FC38FE0
1FC70FE0
1FCE0FE0
1FDC0FE0
1FF80FE0
0FF00FC0
0FF00FC0
0FE00FC0
07E00F80
07F01F80
0FF03F00
1FFC7E00
3CFFF800
783FE000
30000000
ENDCHAR

STARTCHAR ugrave
ENCODING 249
SWIDTH 611 0
DWIDTH 31 0
BBX 31 35 0 -1
BITMAP
00380000
003C0000
003E0000
003F8000
000FC000
0003E000
0000F000
00003800
00000000
00000000
003000E0
03E007C0
7FE0FFC0
7FE0FFC0
07E00FC0
07E00FC0
07E00FC0
07E00FC0
07E00FC0
07E00FC0
07E00FC0
07E00FC0
07E00FC0
07E00FC0
07E00FC0
07E00FC0
07E00FC0
07E01FC0
07F01FC0
07F87FC0
07FFEFC0
03FFCFE0
03FF8FFC
01FF0FFC
007E0000
ENDCHAR

STARTCHAR uacute
ENCODING 250
SWIDTH 611 0
DWIDTH 31 0
BBX 31 35 0 -1
BITMAP
00003800
00007800
0000F800
0001F800
0003E000
000F8000
001E0000
00380000
00000000
00000000
003000E0
03E007C0
7FE0FFC0
7FE0FFC0
07E00FC0
07E00FC0
07E00FC0
07E00FC0
07E00FC0
07E00FC0
07E00FC0
07E00FC0
07E00FC0
07E00FC0
07E00FC0
07E00FC0
07E00FC0
07E01FC0
07F01FC0
07F87FC0
07FFEFC0
03FFCFE0
03FF8FFC
01FF0FFC
007E0000
ENDCHAR

STARTCHAR ucircumflex
ENCODING 251
SWIDTH 611 0
DWIDTH 31 0
BBX 31 35 0 -1
BITMAP
0003C000
0007C000
000FE000
000FF000
001C7800
00383800
00701C00
00E00E00
00000000
00000000
003000E0
03E007C0
7FE0FFC0
7FE0FFC0
07E00FC0
07E00FC0
07E00FC0
07E00FC0
07E00FC0
07E00FC0
07E00FC0
07E00FC0
07E00FC0
07E00FC0
07E00FC0
07E00FC0
07E00FC0
07E01FC0
07F01FC0
07F87FC0
07FFEFC0
03FFCFE0
03FF8FFC
01FF0FFC
007E0000
ENDCHAR

STARTCHAR udieresis
ENCODING 252
SWIDTH 611 0
DWIDTH 31 0
BBX 31 33 0 -1
BITMAP
00F00E00
00F81F00
01F83F00
01F83F00
00F81F00
00F01E00
00000000
00000000
003000E0
03E007C0
7FE0FFC0
7FE0FFC0
07E00FC0
07E00FC0
07E00FC0
07E00FC0
07E00FC0
07E00FC0
07E00FC0
07E00FC0
07E00FC0
07E00FC0
07E00FC0
07E00FC0
07E00FC0
07E01FC0
07F01FC0
07F87FC0
07FFEFC0
03FFCFE0
03FF8FFC
01FF0FFC
007E0000
ENDCHAR

STARTCHAR dotlessi
ENCODING 253
SWIDTH 333 0
DWIDTH 17 0
BBX 16 23 0 0
BITMAP
00E0
1FE0
7FE0
0FE0
07E0
07E0
07E0
07E0
07E0
07E0
07E0
07E0
07E0
07E0
07E0
07E0
07E0
07E0
07E0
07E0
0FF0
7FFE
7FFE
ENDCHAR

STARTCHAR scedilla
ENCODING 254
SWIDTH 444 0
DWIDTH 22 0
BBX 22 35 0 -11
BITMAP
01FF80
07FFE0
0F83C0
1F01C0
1E00C0
3E00C0
3E00C0
3F0000
3FE000
3FFF00
1FFFC0
1FFFE0
0FFFF0
03FFF0
003FF0
0007F0
3003F0
3001F0
3001F0
3801E0
3C03E0
3F0FC0
3FFF00
07FC00
006000
00C000
00F000
00FE00
001E00
000F00
000F00
000F00
0C1E00
0FFC00
03F000
ENDCHAR

STARTCHAR ydieresis
ENCODING 255
SWIDTH 556 0
DWIDTH 28 0
BBX 30 45 -1 -13
BITMAP
00F03C00
00F83E00
01F87E00
01F87E00
00F83E00
00F03C00
00000000
00000000
00000000
3FFE1FF0
3FFE1FF0
0FF003C0
07F00380
03F00380
03F80700
03F80700
01F80700
01FC0E00
00FC0E00
00FC1C00
00FE1C00
007E3C00
007F3800
007F3800
003F7000
003FF000
001FE000
001FE000
001FC000
000FC000
000FC000
00078000
00078000
00070000
00070000
00070000
000E0000
000E0000
001C0000
001C0000
1C780000
1FF00000
1FF00000
1FE00000
1F800000
ENDCHAR
ENDFONT
